<svg width="1200" height="896" viewBox="0 0 1200 896" fill="none" xmlns="http://www.w3.org/2000/svg">
<path d="M600.059 115.22C603.68 116.867 657.574 169.202 665.309 176.479L810.697 313.297C839.596 340.491 871.06 369.277 899.098 397.215L799.869 490.421C784.143 505.251 768.48 521.13 752.467 535.537C767.59 535.429 782.719 535.407 797.848 535.473C798.598 542.467 800.385 550.711 801.738 557.729C802.998 556.259 804.316 554.839 805.688 553.472C827.438 531.882 850.172 535.532 877.975 535.371C897.463 535.127 916.957 535.032 936.445 535.085C935.889 552.742 930.31 571.603 928.676 589.239C927.603 600.842 927.832 612.181 927.369 623.678C926.566 639.787 925.67 655.897 924.686 672C923.262 695.698 924.34 716.173 906.316 734.257C881.959 758.682 853.688 747.753 824.549 743.018C805.277 739.976 785.959 737.222 766.611 734.749C713.754 728.338 660.586 724.84 607.348 724.272C607.617 707.817 610.131 685.296 611.502 668.513C608.789 671.309 603.023 677.678 599.736 678.909L598.459 678.147C594.006 673.887 589.477 669.715 584.873 665.624C583.777 684.886 580.15 705.519 579.398 724.301C550.956 724.43 518.029 726.95 489.542 728.86L490.754 718.851C472.906 730.811 463.059 731.796 442.011 734.011C437.318 734.509 430.851 735.347 426.277 735.411C421.331 735.476 414.417 733.026 409.213 733.372C407.568 734.738 407.945 735.206 407.449 737.715C359.75 743.334 310.574 754.082 263.394 763.446C270.311 697.292 279.349 631.085 286.345 564.915C287.39 555.035 289.038 545.186 289.638 535.261C341.913 534.655 395.07 535.945 447.523 535.422L300.73 397.188C315.009 383.18 330.452 369.08 345.043 355.237L464.653 242.817L556.958 155.924C571.217 142.241 585.585 128.673 600.059 115.22Z" fill="#A0D2E8"/>
<path d="M599.994 131.622C603.053 132.924 660.85 188.655 668.256 195.651L881.953 397.168L722.531 547.535C743.771 547.046 765.908 547.327 787.23 547.341C791.027 566.216 795.316 589.069 798.217 607.973C799.084 590.756 801.48 574.604 814.195 561.738C820.189 555.651 827.73 551.32 836.01 549.211C846.217 546.598 864.855 547.374 876.047 547.365L923.297 547.297C922.406 553.258 921.586 559.589 920.373 565.464C913.254 599.939 916.184 635.228 912.727 670.236C910.846 689.228 913.371 707.647 899.842 723.574C880.975 745.801 854.695 735.622 830.572 731.45C827.578 730.928 823.09 727.893 820.623 728.075C820.775 729.071 820.775 729.03 820.611 730.026C816.715 730.026 801.527 727.471 796.834 726.785C782.877 724.734 768.891 722.877 754.881 721.218C753.451 714.52 751.541 696.378 747.533 692.469C745.811 691.883 745.693 691.936 743.842 692.071C741.896 693.928 736.781 714.796 735.328 719.308C731.941 719.056 728.496 718.728 725.115 718.388C690.246 714.919 655.324 713.776 620.326 712.247C621.088 689.832 624.123 661.698 625.957 638.891C617.607 647.007 608.789 655.064 600.328 663.233C592.576 655.85 583.884 647.241 575.901 640.25L575.21 640.772L574.966 642.712C572.616 665.976 570.386 689.246 568.277 712.534C560.218 713.442 550.463 713.559 542.252 713.911C529.013 714.503 515.781 715.23 502.557 716.097L511.203 638.873L513.516 618.785C513.974 614.952 515.728 610.757 512.803 608.061C509.652 608.741 509.997 619.951 509.475 623.162C505.6 646.96 508.68 676.87 494.882 697.556C482.534 716.062 460.912 721.013 440.186 722.273C422.078 723.803 414.967 724.529 399.676 713.817L397.612 726.991C357.371 733.091 317.279 740.135 277.369 748.116C280.453 716.513 284.795 683.738 288.472 652.064C292.305 617.144 296.336 582.25 300.565 547.377L418.229 547.337L417.2 556.251C432.518 547.334 442.039 547.03 459.386 547.263C465.622 547.346 471.408 547.236 477.741 547.793C462.11 531.623 440.687 512.411 424.035 496.771L318.312 397.161L493.181 232.531C528.514 199.149 565.138 165.414 599.994 131.622Z" fill="#092B4C"/>
<path d="M604.611 199.967L605.73 199.638C605.83 201.202 604.324 203.519 603.82 205.167C597.229 226.718 599.385 248.394 613.57 266.383C616.834 270.52 621.076 274.948 624.117 279.114C650.508 305.346 670.008 322.321 669.129 363.281C669.094 364.824 668.818 369.422 669.68 370.305C671.074 369.226 671.309 368.899 672.445 367.519C683.988 351.235 687.363 338.336 683.988 318.14C683.273 313.872 682.254 309.66 680.936 305.537C696.574 321.158 707.396 340.893 714.709 361.686C716.977 368.12 718.729 376.684 720.973 382.603C716.18 385.148 711.211 387.905 706.277 390.136C687.545 400.002 667.969 409.53 649.055 419.266C643.406 408.8 638.83 399.311 629.9 391.215C629.168 397.412 626.543 412.029 614.133 406.114C607.172 402.795 613.746 387.174 614.455 381.516C615.076 376.543 615.117 368.82 614.004 363.019L613.857 362.28C610.131 350.918 602.297 343.133 592.465 336.761C602.262 365.133 584.869 379.892 567.799 399.79C562.521 405.942 557.282 413.148 552.432 419.717C535.337 410.552 518.064 401.723 500.623 393.235C493.569 389.714 486.338 386.497 479.402 382.761C487.014 352.076 506.93 318.343 531.051 298.163C529.361 309.258 527.816 345.17 552.165 337.518C570.987 331.603 555.35 302.255 553.176 287.862C548.794 258.858 560.072 231.088 583.971 213.115C589.359 208.957 598.125 202.607 604.611 199.967Z" fill="#F07424"/>
<path d="M531.051 298.163C529.361 309.258 527.816 345.17 552.165 337.518C570.987 331.603 555.35 302.255 553.176 287.862C548.794 258.858 560.072 231.088 583.971 213.115C589.359 208.957 598.125 202.607 604.611 199.967L603.533 202.722C600.416 204.785 598.605 207.946 596.291 210.811C587.437 221.751 579.657 236.035 578.629 250.367C575.314 256.628 578.941 276.622 581.05 283.516C583.192 290.589 586.078 297.415 589.652 303.881C598.506 319.85 616.248 342.202 613.857 362.28C610.131 350.919 602.297 343.133 592.465 336.761C602.262 365.133 584.869 379.892 567.799 399.79C562.521 405.942 557.282 413.148 552.432 419.717C535.337 410.552 518.064 401.723 500.623 393.235C493.569 389.714 486.338 386.497 479.402 382.761C487.014 352.076 506.93 318.343 531.051 298.163Z" fill="#E35222"/>
<path d="M680.935 305.537C696.574 321.158 707.396 340.893 714.709 361.686C716.977 368.12 718.728 376.684 720.973 382.603C716.18 385.148 711.211 387.905 706.277 390.136C700.031 386.198 701.601 374.229 695.859 366.104L695.314 366.177C694.588 377.868 679.113 383.57 669.791 376.993C667.207 375.167 671.965 370.686 672.445 367.519C683.988 351.235 687.363 338.336 683.988 318.14C683.273 313.872 682.254 309.66 680.935 305.537Z" fill="#F07424"/>
<path d="M604.611 199.967L605.73 199.638C605.83 201.202 604.324 203.519 603.82 205.167C597.229 226.718 599.385 248.394 613.57 266.383C616.834 270.52 621.076 274.948 624.117 279.114C624.873 281.789 626.484 282.385 626.572 284.29C625.658 285.331 624.398 287.019 623.227 287.52C621.75 286.317 621.158 285.731 619.852 284.337C613.664 282.132 608.625 290.194 606.152 294.874C597.164 282.944 592.635 273.821 589.723 259.156C586.898 254.405 588.176 243.205 588.58 237.497C578.801 238.824 583.944 246.166 578.629 250.367C579.657 236.035 587.437 221.751 596.291 210.811C598.605 207.946 600.416 204.785 603.533 202.722L604.611 199.967Z" fill="#FAB446"/>
<path d="M578.629 250.367C579.657 236.035 587.437 221.751 596.291 210.811C598.605 207.946 600.416 204.785 603.533 202.722C601.254 206.469 601.125 208.132 599.49 211.104C590.713 227.125 587.139 240.725 589.723 259.156C586.898 254.405 588.176 243.205 588.58 237.497C578.801 238.824 583.944 246.166 578.629 250.367Z" fill="#F07424"/>
<path d="M415.033 346.797C423.114 345.022 433.037 342.078 441.23 339.887C459.666 334.776 478.19 329.987 496.793 325.52C494.361 329.325 491.713 334.598 489.21 338.741C481.472 341.296 422.165 356.544 420.238 358.622L420.506 359.929C423.25 363.552 430.465 366.196 434.634 368.313L455.746 379.23L535.704 419.432C550.019 426.572 567.914 434.981 581.492 442.802C583.436 434.245 587.432 427.439 596.678 425.646C601.324 424.739 606.135 425.718 610.055 428.369C615.193 431.873 617.121 436.387 618.164 442.226C627.785 438.089 640.799 431.126 650.437 426.335C672.182 415.575 693.867 404.686 715.488 393.669L755.854 373.262C762.404 369.958 773.32 364.837 779.004 361.143C779.766 359.204 779.631 360.19 779.338 358.066C775.77 356.319 769.764 354.995 765.809 353.83C756.762 351.161 747.363 348.917 738.398 345.988C732 344.781 719.906 341.197 713.736 339.296C711.328 335.869 707.771 329.517 705.51 325.735C715.623 328.876 727.939 330.451 737.783 334.199C752.73 337.766 770.256 343.76 784.547 346.862C788.543 344.38 791.25 342.132 796.324 343.547C808.178 346.851 813.703 363.785 801.451 370.615C797.016 373.087 791.637 371.73 786.99 370.259C730.934 399.002 674.684 427.366 618.24 455.348C618.264 468.343 618.053 482.246 618.527 495.164C659.385 472.871 700.049 450.217 740.508 427.204C745.957 424.108 777.246 406.728 780.562 403.663C779.273 396.922 763.951 394.89 757.734 392.454C762.738 390.117 767.689 387.734 772.84 385.719C776.52 386.746 780.439 387.766 784.066 388.933C792.973 382.767 802.266 382.41 808.131 392.639C817.535 392.273 840.756 391.531 849.615 392.509C851.115 394.077 852.697 395.604 853.934 397.377C851.672 399.553 848.83 402.453 846.387 404.265C834.059 404.336 821.027 404.626 808.752 404.421C802.881 412.73 799.857 414.297 789.691 412.479C756.58 431.788 723.264 450.733 689.736 469.311L640.934 496.484C633.885 500.44 624.58 505.261 617.988 509.385C618.885 521.288 617.982 535.24 618.498 547.421L610.506 547.413C610.459 537.615 610.037 524.305 610.547 514.789C609.896 491.848 611.455 463.576 609.891 440.466C606.938 428.656 589.711 431.236 589.576 443.443C589.254 473.901 589.582 504.396 589.465 534.863C589.447 538.705 589.354 542.719 589.576 546.536C588.053 545.31 587.877 545.474 585.829 545.574L585.295 545.605L584.72 544.6C584.978 542.57 585.495 538.682 584.49 536.888C584.121 537.335 583.164 544.231 583.103 545.097L583.075 545.529C582.209 543.755 582.727 512.61 582.742 508.19C580.223 506.854 579.084 506.19 576.764 504.519C578.484 504.564 580.266 505.473 581.898 506.141L583.115 505.581C585.125 502.903 585.554 499.242 583.741 496.355C582.477 496.165 581.441 495.824 580.222 495.466L580.487 494.795L581.103 494.324C582.264 492.318 581.766 460.352 581.753 455.416C568.656 449.814 549.698 439.188 536.519 432.492L457.002 392.718C442.618 385.476 427.363 377.006 412.921 370.32C412.286 370.54 411.646 370.751 411.004 370.95C402.912 373.449 394.901 371.612 392.249 362.604C389.805 354.303 396.737 344.945 404.817 343.208C409.134 342.281 411.739 344.477 415.033 346.797Z" fill="#E9F4F7"/>
<path d="M610.547 514.789C612.006 519.466 609.943 534.994 612.492 537.601L612.697 534.72L613.295 534.802C613.816 538.126 613.535 542.69 613.441 546.149L614.022 546.466C616.758 543.62 614.221 536.137 615.463 533.441C617.777 536.474 615.756 543.992 617.145 545.798C618.434 542.444 617.062 516.264 617.988 509.385C618.885 521.288 617.982 535.24 618.498 547.421L610.506 547.413C610.459 537.615 610.037 524.305 610.547 514.789Z" fill="#D4EBF2"/>
<path d="M448.355 565.181C459.964 565.034 476.352 562.689 485.84 570.587C491.301 575.133 494.31 580.517 494.956 587.569C495.786 596.634 488.377 666.029 485.822 675.393C484.344 680.884 481.645 685.976 477.928 690.283C469.153 700.515 460.236 702.255 447.718 703.281C435.051 705.056 419.908 708.573 409.586 699.208C405.625 695.616 402.619 688.32 402.783 683.017C403.808 668.49 405.077 654.039 407.232 639.524C409.785 622.336 410.003 599.588 416.312 583.689C421.419 570.819 435.415 565.73 448.355 565.181Z" fill="#F2802C"/>
<path d="M483.108 630.218C485.091 630.066 484.511 629.831 485.996 630.698C485.919 642.043 483.316 655.451 482.36 666.925C481.704 674.789 478.593 684.013 472.346 689.287C468.827 692.311 464.763 694.632 460.371 696.132C452.858 698.622 432.092 700.128 423.891 699.782C400.641 698.798 408.889 668.085 410.69 653.529C411.051 647.991 412.253 640.584 412.796 634.59C419.077 633.998 425.369 633.529 431.668 633.171C430.133 644.68 427.653 664.335 427.337 675.487C429.26 678.71 431.114 681.083 435.207 681.499C443.992 682.355 459.891 682.279 462.545 671.051C465.391 659.002 466.061 643.796 467.689 631.191C472.753 630.739 478.02 630.511 483.108 630.218Z" fill="#E35222"/>
<path d="M454.112 590.944C458.943 590.604 462.412 589.754 465.656 593.974C466.746 599.734 459.439 668.789 457.024 672.082C454.317 675.768 449.746 676.09 445.603 676.688C440.481 677.034 436.173 678.95 432.979 673.869C432.69 663.831 435.588 646.093 436.534 635.515C437.998 623.057 438.554 610.347 440.75 597.999C441.912 591.465 449.191 591.231 454.112 590.944Z" fill="#092B4C"/>
<path d="M370.859 565.365L399.142 565.37C396.543 585.218 394.778 605.746 392.538 625.659L382.768 711.274C373.029 712.493 363.095 714.169 353.38 715.698C355.584 695.698 358.318 674.303 360.004 654.338C356.042 654.572 351.745 655.047 347.764 655.41C343.121 655.984 338.426 656.623 333.763 656.94C333.829 660.303 332.193 673.406 331.787 677.198L326.853 720.867C317.142 722.42 307.107 724.529 297.427 726.422C297.728 718.974 299.21 709.305 300.098 701.746C301.718 687.336 303.434 672.932 305.246 658.54C308.937 627.692 311.764 596.113 315.849 565.361L344.569 565.46C342.602 585.699 339.391 606.918 337.893 627.018C346.253 626.145 355.322 625.694 363.755 625.178C366.588 607.153 368.622 583.927 370.859 565.365Z" fill="#F2802C"/>
<path d="M380.353 637.813C381.959 637.578 384.196 637.256 385.451 638.229C385.414 641.633 385.062 644.944 384.604 648.32C381.98 667.628 381.175 687.764 377.754 706.932C370.26 708.655 367.174 709.252 359.58 709.258C359.653 703.773 360.858 697.345 361.297 691.766C362.454 677.104 364.745 662.501 366.173 647.915C353.982 649.65 341.74 651.009 329.466 652C328.551 657.854 327.896 664.417 327.186 670.353C325.345 685.572 323.879 701.177 322.154 716.472L303.473 719.595C304.8 704.054 306.444 688.543 308.405 673.072C309.527 664.323 311.445 653.459 311.951 644.909C334.775 642.77 357.577 640.409 380.353 637.813Z" fill="#E35222"/>
<path d="M902.865 565.205C903.439 566.519 901.939 572.826 901.57 574.709C899.525 585.225 898.822 594.308 898.553 604.973C888.949 609.092 879.258 612.984 869.473 616.652C870.375 607.809 874.348 594.571 863.397 592.948C857.965 592.139 844.805 591.77 844.236 599.435C842.338 624.803 841.201 650.113 839.684 675.498C838.242 688.701 849.053 687.506 858.287 689.434C868.992 691.672 867.035 667.488 867.305 660.608C863.479 660.198 859.377 659.565 855.539 659.049C855.721 650.06 856.611 641.077 856.74 631.706C870.246 632.972 883.734 634.396 897.199 635.99C897.152 641.036 896.947 646.081 896.578 651.121C896.438 657.362 895.312 666.169 895.207 671.848C894.65 702.683 890.566 726.434 852.879 717.445C846.656 715.962 839.818 715.927 832.898 713.255C828.41 711.561 824.297 709.006 820.787 705.73C815.051 700.275 810.568 690.33 810.867 682.361C811.729 657.854 813.744 634.484 815.396 609.919C816.639 591.413 819.316 571.884 840.762 566.492C848.59 564.522 859.676 565.302 867.996 565.31C879.621 565.38 891.246 565.345 902.865 565.205Z" fill="#FEFDFD"/>
<path d="M818.004 637.443C823.74 637.537 830.918 638.545 836.543 639.641C836.232 651.572 835.389 663.286 834.41 675.182C832.963 692.756 850.969 694.637 864.053 694.45C871.16 689.856 871.131 684.945 871.6 677.169C872.01 670.295 872.303 663.362 872.508 656.477C868.049 655.656 865.178 655.375 860.689 655.035C860.707 650.857 860.936 646.515 861.094 642.331C866.109 643.128 888.814 645.255 891.158 647.095L891.328 649.146C890.232 667.628 894.955 715.745 868.043 714.268C860.432 713.852 840.51 710.84 833.49 708.098C829.84 706.715 826.512 704.605 823.699 701.898C814.559 693.02 815.73 681.165 816.381 669.422C816.973 658.745 818.133 648.15 818.004 637.443Z" fill="#A0D2E8"/>
<path d="M735.779 565.232C748.189 565.33 760.594 565.361 773.004 565.326C774.797 578.67 778.389 595.509 780.82 609.169C786.691 642.413 792.803 675.604 799.154 708.754L769.682 704.928C768.99 700.556 765.545 677.508 763.916 675.791C752.52 675.229 741.445 673.43 729.826 673.113C727.893 681.306 724.559 691.737 722.303 700.158C715.547 698.833 700.295 698.294 692.918 697.895C698.789 680.995 704.174 663.075 709.629 646.028L735.779 565.232Z" fill="#FEFDFD"/>
<path d="M719.865 630.529C724.928 630.441 731.719 630.956 736.898 631.232C734.701 638.065 732.668 646.245 730.758 653.265C742.617 653.635 754.594 655.463 766.535 655.85C765.076 648.296 764.004 640.35 762.967 632.726C768.691 633.265 774.51 633.693 780.252 634.162C783.199 655.867 788.561 681.13 792.65 702.818L778.852 701.13L774.311 700.579C772.535 690.934 770.672 681.3 768.738 671.684C756.451 669.873 738.387 668.525 726.311 668.004C723.592 676.02 720.662 686.351 718.371 694.532C712.775 693.876 705.668 693.635 699.961 693.325C706.143 673.992 714.75 649.767 719.865 630.529Z" fill="#A0D2E8"/>
<path d="M751.922 597.466C753.404 598.75 754.301 609.684 754.723 612.632L760.424 650.605C756.088 650.124 751.57 649.814 747.211 649.451C743.854 649.339 740.531 648.976 737.186 648.654C742.043 633.464 748.143 612.943 751.922 597.466Z" fill="#092B4C"/>
<path d="M510.394 565.361L591.439 565.362C591.146 572.619 589.799 582.64 589.031 590.059L562.611 590.258C560.343 617.015 557.207 645.313 554.473 672.164C553.973 679.823 552.84 687.635 552.339 695.516C543.542 696.395 531.322 696.595 522.443 696.817L533.884 590.463L507.729 590.756C508.034 583.557 509.443 572.629 510.394 565.361Z" fill="#F2802C"/>
<path d="M544.074 627.862C546.646 627.663 550.588 627.71 553.27 627.651C552.992 634.759 548.82 688.59 546.612 690.951C543.932 692.147 540.792 691.807 537.796 691.772C534.906 692.498 530.922 692.838 528.096 691.701C527.473 690.289 534.263 634.888 534.961 628.22L544.074 627.862Z" fill="#E35222"/>
<path d="M623.719 565.266C650.584 564.877 678.586 565.262 705.533 565.404C704.578 573.919 703.43 582.798 703.043 591.325C694.172 590.891 685.301 590.627 676.424 590.534C673.611 615.937 672.088 645.061 669.832 670.834L667.98 696.43L639 695.253C640.652 671.203 643.055 646.972 644.877 622.922C645.703 612.052 647.039 601.146 647.602 590.264L621.404 590.147C622.289 581.866 623.062 573.571 623.719 565.266Z" fill="#FEFDFD"/>
<path d="M649.471 627.651C655.635 627.675 661.799 627.751 667.963 627.886L663.187 690.963L644.402 690.629C645.885 677.86 646.336 664.681 647.666 651.847C648.486 643.907 649.113 635.609 649.471 627.651Z" fill="#A0D2E8"/>
<path d="M391.867 392.604C398.797 382.455 406.475 383.019 416.125 388.58L427.706 385.719C432.79 387.816 437.712 389.965 442.428 392.833C437.595 394.27 424.066 397.946 420.57 400.232C419.987 401.723 420.226 402.319 420.468 403.893C423.585 407.051 442.696 417.318 447.841 420.258C479.815 438.47 511.9 456.485 544.096 474.303L568.887 488.119C570.913 489.243 579.158 493.661 580.487 494.795L580.222 495.466C581.441 495.824 582.477 496.165 583.741 496.355C585.554 499.242 585.125 502.903 583.115 505.581L581.898 506.141C580.266 505.473 578.484 504.564 576.764 504.519C579.084 506.19 580.223 506.854 582.742 508.19C582.727 512.61 582.209 543.755 583.075 545.529L583.103 545.097C583.164 544.231 584.121 537.335 584.49 536.888C585.495 538.682 584.978 542.57 584.721 544.6L585.295 545.605L585.829 545.574C587.877 545.474 588.053 545.31 589.576 546.536C587.965 547.823 583.954 547.34 581.686 547.302C581.994 534.915 581.756 521.558 581.765 509.095L512.128 470.126C498.954 462.738 485.26 455.547 472.276 447.935C454.778 438.817 437.892 427.976 420.649 418.358C417.258 416.466 413.9 414.394 410.647 412.272C400.426 414.39 397.423 412.543 391.319 404.472C378.809 404.579 366.298 404.562 353.788 404.419L345.711 397.004L350.688 392.392C363.959 392.095 378.565 392.277 391.867 392.604Z" fill="#D4EBF2"/>
<path d="M472.276 447.935C475.107 447.815 476.418 448.015 478.966 449.218C495.302 456.934 510.56 466.992 526.259 475.741L557.383 492.687C563.138 495.885 569.007 498.763 574.196 502.979C575.39 503.949 574.974 504.146 576.764 504.519C579.084 506.19 580.223 506.854 582.742 508.19C582.727 512.61 582.209 543.755 583.075 545.529L583.103 545.097C583.164 544.231 584.121 537.335 584.49 536.888C585.495 538.682 584.978 542.57 584.721 544.6L585.295 545.605L585.829 545.574C587.877 545.474 588.053 545.31 589.576 546.536C587.965 547.823 583.954 547.34 581.686 547.302C581.994 534.915 581.756 521.558 581.765 509.095L512.128 470.126C498.954 462.738 485.26 455.547 472.276 447.935Z" fill="#FEFDFD"/>
<path d="M391.874 440.763C399.837 426.159 416.155 429.15 420.026 444.879C420.49 446.762 420.146 450.355 420.023 452.378L423.82 454.939C430.677 458.6 437.421 462.795 444.049 466.872C481.906 490.162 520.584 512.071 558.783 534.79C565.32 538.677 572.003 542.895 578.662 546.52L578.752 547.179C577.215 547.437 576.969 547.498 575.348 547.465C569.413 547.659 562.613 547.486 556.613 547.475C524.104 527.54 490.121 508.803 457.499 489.013C445.772 481.899 429.465 473.117 418.665 465.806C413.944 462.611 396.464 445.336 391.874 440.763Z" fill="#B1E1F1"/>
<path d="M575.348 547.465C573.498 545.928 564.294 541.97 561.07 540.07L521.434 516.772C514.622 512.808 508.181 510.629 503.007 504.599C502.574 504.093 495.163 501.558 493.331 500.418C494.661 499.614 497.243 501.71 500.256 501.89C478.866 488.462 456.233 476.24 434.846 462.709C431.43 460.547 426.696 458.27 423.676 455.729L423.82 454.939C430.677 458.6 437.421 462.795 444.049 466.872C481.906 490.162 520.584 512.071 558.783 534.79C565.32 538.677 572.003 542.895 578.662 546.52L578.752 547.179C577.215 547.437 576.969 547.498 575.348 547.465Z" fill="#E9F4F7"/>
<path d="M777.732 454.583C781.137 451.411 780.328 450.617 780.65 446.103C781.787 429.944 800.783 425.4 808.172 441.134C802.471 446.533 787.395 462.22 781.781 465.729C736.857 493.828 689.18 519.362 644.197 547.315L631.225 547.421C627.516 547.406 623.479 547.588 619.746 547.681C624.475 544.801 629.191 541.804 634.143 539.35C635.473 538.126 776.156 455.051 777.732 454.583Z" fill="#B5E4F3"/>
<path d="M634.143 539.35C635.473 538.126 776.156 455.051 777.732 454.583L778.049 455.214C762.697 464.582 747.275 473.827 731.777 482.949C725.426 486.762 712.213 494.086 707.355 498.944L707.772 498.849C700.025 505.185 679.025 516.737 669.604 522.307C661.94 526.839 643.729 538.236 636.27 541.748C633.457 543.679 631.94 544.172 631.225 547.421C627.516 547.406 623.479 547.588 619.746 547.681C624.475 544.801 629.191 541.804 634.143 539.35Z" fill="#E9F4F7"/>
<path d="M619.746 547.681C624.475 544.801 629.191 541.804 634.143 539.35C632.982 540.81 632.191 541.705 630.885 543.037C632.678 542.412 634.447 541.564 636.27 541.748C633.457 543.679 631.94 544.172 631.225 547.421C627.516 547.406 623.479 547.588 619.746 547.681Z" fill="#D4EBF2"/>
<path d="M725.139 409.579C727.494 411.044 726.627 424.26 726.615 427.335C707.766 437.95 689.004 448.977 669.979 459.204C667.453 460.563 664.348 462.735 661.834 463.454L661.266 462.759C660.094 456.088 658.553 449.795 656.977 443.206C664.928 440.178 675.662 434.447 683.438 430.556C697.377 423.644 711.275 416.652 725.139 409.579Z" fill="#E65A24"/>
<path d="M717.393 461.698L717.855 461.812L718.277 462.602C714.469 471.385 710.273 481.609 703.934 488.866C698.725 494.821 659.232 516.623 650.033 521.249C649.611 521.321 649.893 521.314 649.236 521C656.15 509.382 657.018 505.837 660.896 493.023C677.197 485.43 700.951 470.994 717.393 461.698Z" fill="#D33727"/>
<path d="M481.964 461.221C486.532 463.194 497.981 469.985 502.549 472.605C514.951 479.833 527.429 486.931 539.98 493.895C543.117 506.861 544.56 510.227 551.014 521.895C533.967 513.575 515.58 500.413 498.798 491.058C493.199 487.937 483.016 467.407 481.964 461.221Z" fill="#C52C2A"/>
<path d="M492.324 437.415C491.979 432.776 490.396 421.724 492.378 418.387L542.968 443.659C541.112 450.348 539.219 456.445 538.675 463.405C523.035 454.744 507.707 446.655 492.324 437.415Z" fill="#E35222"/>
<path d="M474.018 408.881C480.173 411.982 486.294 415.151 492.379 418.387C490.396 421.724 491.979 432.776 492.324 437.415C486.996 435.117 479.271 430.628 473.977 427.742C474.03 421.455 474.045 415.167 474.018 408.881Z" fill="#E35222"/>
<path d="M691.799 608.712L703.049 608.758L692.285 642.407C691.143 646.081 690.281 648.589 688.793 652.123C690.439 640.889 691.078 620.725 691.799 608.712Z" fill="#A0D2E8"/>
<path d="M725.197 370.105C727.91 370.874 735.926 372.731 737.256 374.655L735.668 375.661C732.773 376.923 730.658 378.117 727.904 379.665L725.197 370.105Z" fill="#A0D2E8"/>
<path d="M474.703 369.873C474.733 370.602 472.636 378.14 472.293 379.528L465.687 376.179L463.495 374.919L463.634 374.06C465.339 372.908 472.061 370.91 474.703 369.873Z" fill="#A0D2E8"/>
</svg>
