<svg width="1200" height="1200" viewBox="0 0 1200 1200" fill="none" xmlns="http://www.w3.org/2000/svg">
<path d="M339.25 418.114C352.631 417.011 370.218 417.601 383.737 418.98C388.888 419.505 395.699 422.48 401.226 422.642C401.933 421.367 401.85 421.321 402.083 419.877C404.59 418.893 464.445 419.754 470.476 419.732L939.516 419.733C941.959 431.896 944.701 445.172 946.676 457.358C959.69 446.933 968.285 435.789 985.811 428.954C1018.46 416.212 1062.45 419.708 1097.69 419.694L1180.21 419.634C1177.34 449.122 1169.82 478.924 1166.75 508.385C1163.63 538.414 1163.93 569.032 1162.71 599.215C1161.3 629.555 1159.38 659.865 1156.92 690.141C1153.96 730.986 1135.46 768.363 1094.7 782.49C1059.74 794.631 1024.42 781.816 989.648 776.285C958.377 771.311 926.719 766.383 895.301 762.457C845.584 756.551 795.732 751.875 745.793 748.441C717.838 746.801 689.525 746.813 661.746 744.756C645.164 744.656 629.104 743.754 612.264 743.871C612.012 731.367 614.584 707.596 615.615 694.523L621.908 615.873C623.332 598.711 625.213 581.827 625.793 564.602C611.203 564.381 596.455 564.434 581.854 564.394C579.538 581.204 577.982 601.658 576.362 618.861L569.466 688.617C567.752 706.705 566.32 725.754 564.196 743.684C557.121 744.387 545.907 744.416 538.479 744.703L486.483 746.854C462.733 747.984 432.284 751.148 409.464 751.266L410.556 735.281C408.667 736.805 406.692 738.223 404.64 739.518C379.329 755.385 355.158 758.496 326.231 761.15C304.627 763.125 292.619 763.16 271.103 758.262C270.291 761.203 269.765 763.916 269.16 766.898C262.603 767.221 255.741 768.158 249.244 769.09C186.939 778.008 125.147 790.154 63.2912 801.686C48.9954 804.352 34.6454 808.4 20.3524 810.615C20.5686 801.135 22.3634 787.617 23.4772 778.049L30.3538 721.213L54.3466 517.262L61.6295 455.947C62.9754 444.871 65.2225 430.175 65.7486 419.515L220.889 419.583C248.649 419.597 281.006 418.768 308.3 420.117C309.098 421.448 308.667 420.816 309.587 422.017C316.29 421.859 329.543 418.687 339.25 418.114Z" fill="#99CDDF"/>
<path d="M335.324 439.746C340.333 439.09 350.602 439.175 355.745 439.17C379.26 439.147 398.852 440.476 418.438 454.594C419.034 450.048 419.457 445.146 419.938 440.559L708.574 440.723C779.742 441.076 850.916 441.048 922.09 440.64C924.574 449.897 927.357 467.101 929.232 477.112C933.451 498.943 937.436 520.817 941.191 542.732C942.902 515.514 947.918 486.156 967.922 466.103C978.715 455.455 992.162 447.884 1006.86 444.172C1024.56 439.708 1052.7 440.749 1071.77 440.696L1156.79 440.661C1155.84 449.705 1153.98 460.5 1152.09 469.451C1143.58 509.78 1143.86 549.275 1142.27 590.092C1141.31 611.578 1140.07 633.047 1138.54 654.498C1137.6 668.455 1136.6 682.283 1135.07 696.188C1131.73 726.639 1115.57 754.254 1084.93 763.354C1064.13 769.529 1045.95 765.791 1025.32 761.461C1015.41 759.375 1005.42 757.67 995.531 755.42C990.498 754.26 986.297 751.389 980.883 750.639C979.629 752.52 978.656 753.844 976.154 753.445C940.072 747.721 902.701 741.586 866.32 738.539C864.762 724.394 860.344 703.025 855.258 690.047C853.547 689.689 848.121 688.518 847.412 689.52C842.314 696.715 834.861 727.33 832.805 734.643C766.834 728.725 700.687 724.986 634.471 723.434C635.602 707.238 636.838 691.043 638.18 674.859C641.9 640.541 643.623 605.566 647.039 571.167C647.912 562.329 648.826 553.196 649.359 544.353C641.52 542.977 625.559 543.332 616.945 543.31C598.857 543.201 580.775 543.248 562.693 543.45C562.477 550.508 561.185 560.683 560.445 567.955L555.771 613.055C551.982 649.928 548.869 687.1 544.747 723.914C529.999 725.062 511.843 725.268 496.868 725.865C475.322 726.855 453.789 728.086 432.271 729.557C433.567 714.428 435.885 697.277 437.626 682.049L452.874 551.962C453.136 549.526 452.517 546.857 450.039 545.835C444.772 548.241 444.611 568.966 443.698 575.458C437.969 616.225 442.204 664.998 417.128 700.096C395.228 730.752 355.974 738.48 320.771 740.836C292.533 742.998 278.805 742.148 255.693 725.221C254.044 731.678 252.609 741.264 251.51 747.908C239.228 749.397 225.708 752.045 213.322 753.967C172.124 760.219 131.064 767.355 90.1723 775.371C75.0779 778.225 59.3936 781.904 44.3762 784.359C44.4808 772.734 47.8738 748.658 49.4486 736.348L57.27 671.584L84.3539 440.538C151.787 441.011 219.223 441.006 286.655 440.527C286.393 445.241 285.717 450.803 285.261 455.566C304.962 445.39 312.537 441.624 335.324 439.746Z" fill="#0A2D4E"/>
<path d="M343.204 469.59C347.469 469.247 353.65 469.408 358.185 469.355C374.744 469.16 390.311 469.107 403.946 479.72C411.191 485.293 418.487 497.381 418.836 506.79C419.692 529.837 416.314 555.654 413.93 578.549C412.229 595.904 410.227 613.23 407.923 630.516C406.677 640.049 405.117 653.49 402.547 662.625C400.55 669.949 397.036 676.775 392.233 682.658C375.961 702.832 359.083 706.037 334.959 708.527C315.521 710.584 291.698 716.566 275.106 703.395C268.041 698.309 260.751 685.201 260.821 675.99C261.032 648.398 265.761 618.557 269.247 591.182C272.653 566.813 273.151 542.122 278.701 518.084C286.89 482.61 309.645 472.039 343.204 469.59Z" fill="#EF7A28"/>
<path d="M391.662 582.668L403.858 582.375C403.448 589.535 402.982 596.695 402.46 603.85C401.846 611.473 400.708 619.471 399.795 627.111C397.34 647.643 396.097 670.904 378.953 685.154C362.579 698.766 342.792 698.941 322.758 700.975C313.966 701.525 304.401 703.324 295.638 702.316C272.64 699.674 268.011 681.697 269.152 662.109C269.863 649.887 271.322 639.463 272.926 627.674C274.162 615.152 276.22 602.748 277.369 590.197C288.425 589.23 299.228 587.936 310.335 587.408C308.336 602.953 306.48 618.516 304.768 634.096C303.032 650.408 297.754 670.424 320.285 671.279C347.047 672.287 362.602 666.744 365.961 638.215C368.119 619.887 370.454 601.781 372.145 583.687C378.459 583.7 385.32 583.095 391.662 582.668Z" fill="#E14C20"/>
<path d="M346.01 514.699C356.619 514.208 363.04 512.388 369.248 522.299C368.547 539.35 359.93 645.943 353.17 654.914C349.721 659.496 341.896 661.242 336.468 661.969C335.587 662.086 334.704 662.191 333.82 662.285C307.659 665.016 311.753 658.518 313.734 636.334C315.257 620.824 316.926 605.326 318.739 589.846L322.912 549.275C325.003 530.125 322.453 515.912 346.01 514.699Z" fill="#0A2D4E"/>
<path d="M205.413 471.351C221.346 470.973 238.165 471.175 254.141 471.141L232.836 662.537C230.812 681.322 227.521 703.26 226.021 721.576L202.005 725.162C193.259 726.059 184.737 727.852 175.738 728.66C178.941 693.732 183.579 658.564 186.875 623.379C171.898 624.791 156.553 626.725 141.5 628.271C138.921 661.395 134.122 694.523 130.775 727.582C130.443 730.863 130.075 734.104 129.36 737.32C113.267 740.859 95.3297 743.877 79.0565 746.918C84.0328 690.445 92.6455 631.869 99.0082 575.122C101.377 552.168 103.88 529.226 106.518 506.301C107.504 497.337 108.954 479.544 110.79 471.35C125.95 470.927 144.372 471.203 159.641 471.379C159.547 482.128 157.388 496.136 156.171 507.183C153.529 530.285 151.018 553.402 148.639 576.532C163.335 575.705 178.596 574.427 193.236 574.162C197.795 539.953 201.854 505.679 205.413 471.351Z" fill="#EF7A28"/>
<path d="M227.251 594.984C228.963 594.715 228.938 594.609 230.58 595.043C231.47 597.398 219.375 702.656 218.331 714.082C209.466 715.84 194.636 718.236 185.832 718.541C187.712 701.824 188.687 683.877 190.63 667.037C192.694 649.16 195.101 631.225 196.492 613.289C188.924 614.367 180.762 614.701 173.142 615.662C159.969 617.32 147.168 618.785 133.911 619.635L129.569 657.281L125.074 700.441C124.051 710.039 122.672 720.703 122.305 730.271C112.232 732.428 99.1143 734.619 88.943 736.148C89.1194 732.48 89.6795 728.982 90.0738 725.35C93.6487 692.379 97.2985 659.584 102.306 626.789C103.222 620.795 104.074 613.682 104.332 607.693C144.09 605.42 187.698 597.574 227.251 594.984Z" fill="#E14C20"/>
<path d="M1025.82 471.308C1033.06 470.423 1050.88 471.126 1059.12 471.16C1080.02 471.241 1100.93 471.194 1121.83 471.019C1120.92 479.169 1118.82 489.06 1117.61 497.52C1115.7 511.319 1114.57 525.215 1114.24 539.142C1097.04 547.065 1081.61 552.591 1064.04 559.467C1064.17 548.702 1069.14 531.789 1062.16 523.288C1055.88 515.629 1030.7 516.605 1023.54 523.43C1022.03 524.873 1020.76 530.719 1020.57 532.99C1019.09 550.348 1018.06 567.792 1016.95 585.184L1014.37 630.076C1013.7 641.139 1012.97 652.219 1012.47 663.264C1011.92 675.398 1018.26 679.582 1029.23 682.031C1036.59 683.678 1042.68 684.398 1050.21 684.322C1051.22 683.678 1053.93 681.727 1054.54 680.854C1061.72 670.588 1060.38 646.699 1059.79 635.039C1052.68 634.254 1046.91 633.322 1039.88 632.068C1040.16 616.465 1041.49 600.908 1041.93 585.243C1044.86 585.715 1047.78 585.901 1050.73 586.148C1071 587.977 1091.45 590.9 1111.62 592.594C1111.39 613.072 1110.42 627.797 1108.59 648.586C1106.92 671.115 1108.76 700.412 1095.16 719.654C1079.93 741.205 1052.05 736.055 1030.08 731.291C1013.41 727.67 998.186 726.973 983.555 715.687C972.85 707.437 965.613 693.557 963.527 680.068C962.525 660.053 964.699 638.525 965.936 618.516C966.949 599.344 968.197 580.184 969.68 561.04C972.773 519.104 974.461 477.1 1025.82 471.308Z" fill="#FEFEFE"/>
<path d="M975.562 594.979C987.428 595.787 995.467 596.525 1007.25 598.5C1007.11 616.377 1005.11 635.297 1004.02 653.168C1003.17 663.346 1002.45 672.738 1009.86 680.988C1018.54 691.764 1050.36 698.531 1060.18 688.166C1070.61 677.162 1068.33 643.477 1068.67 628.207C1061.88 626.977 1055.62 625.822 1048.76 625.014C1048.75 618.006 1049.16 610.975 1049.48 603.967C1065.64 605.66 1086.44 607.365 1102.01 610.623L1101.77 617.432C1100.4 647.227 1104.14 692.391 1085.15 717.797C1068.72 733.131 1041.37 724.77 1022.88 721.5C976.482 713.297 968.531 691.008 972.879 647.191C974.221 633.645 975.551 609.229 975.562 594.979Z" fill="#99CDDF"/>
<path d="M834.059 471.069L897.434 471.128C897.533 476.8 899.443 486.201 900.457 491.976C902.871 505.732 905.818 519.41 908.35 533.161C915.521 573.662 922.957 614.115 930.65 654.522C934.441 674.578 939.949 697.805 942.75 717.404C927.152 715.307 907.494 712.195 892.107 711.088C890.461 698.684 886.037 674.256 882.486 661.383C882.281 660.65 881.672 660.732 880.775 660.522C862.488 660.34 841.746 656.268 823.482 656.092C819.504 671.502 814.758 687.047 810.615 702.527C794.01 700.559 776.619 700.377 759.949 698.83C777.82 646.805 794.596 591.744 811.57 539.209L823.787 502.039C826.963 492.188 830.379 480.636 834.059 471.069Z" fill="#FEFEFE"/>
<path d="M806.508 583C814.758 583.104 827.426 583.989 835.623 584.719C831.85 596.092 828.346 610.441 825.152 622.184C845.344 623.191 866.396 625.687 886.734 627C884.449 617.408 881.402 597.264 880.447 587.625C888.902 587.707 901.113 589.102 910.002 589.717C913.078 613.746 917.408 633.24 922.066 656.742L931.6 707.42C925.43 707.045 917.356 705.697 911.022 704.93C907.406 704.273 903.932 703.939 900.287 703.547C898.518 689.725 892.752 668.285 890.115 653.496C870.996 650.297 836.766 648.287 816.996 647.543C813.357 661.436 806.514 680.402 804.135 692.689C792.996 691.992 783.58 691.412 772.389 691.336C774.697 680.039 781.482 661.635 785.25 650.355C792.803 628.055 799.893 605.596 806.508 583Z" fill="#99CDDF"/>
<path d="M861.615 526.656C863.033 528.1 874.553 607.828 876.111 617.766C868.248 616.769 859.805 616.289 851.848 615.709C846.896 614.959 841.26 614.672 836.262 614.496C839.221 601.025 845.719 584.094 849.656 570.497C853.846 556.052 857.338 540.873 861.615 526.656Z" fill="#0A2D4E"/>
<path d="M445.624 471.164C463.055 471.482 481.467 471.175 498.962 471.165C527.759 471.234 556.556 471.152 585.352 470.921C583.901 485.088 582.902 499.637 581.164 513.723C565.993 514.019 550.862 513.689 535.579 514.093C535.109 531.129 532.09 552.658 530.25 569.87C527.161 598.547 524.225 627.246 521.445 655.957L517.178 695.613C500.427 696.305 483.663 696.674 466.898 696.715C467.747 682.523 469.684 666.979 471.231 652.834C472.88 636.334 474.654 619.852 476.552 603.381C479.923 573.699 482.576 544.217 486.249 514.437C471.832 513.892 456.121 514.272 441.648 514.443C441.745 500.88 443.901 484.762 445.624 471.164Z" fill="#EF7A28"/>
<path d="M512.536 578.067L519.871 577.706C519.665 589.242 517.617 606.633 516.492 618.504C514.389 641.508 512.05 664.482 509.476 687.439C502.417 688.389 490.246 688.453 483.02 688.506H476.141C477.687 653.941 485.662 613.535 487.832 578.806C495.653 578.858 504.632 578.348 512.536 578.067Z" fill="#E14C20"/>
<path d="M699.07 470.792C726.668 470.382 754.277 470.435 781.875 470.951C780.117 486.019 777.551 500.437 777.428 515.587C762.293 515.469 746.877 514.602 731.496 514.458L716.824 696.375L707.666 695.93C695.666 694.834 679.072 694.453 667.049 694.248C667.857 676.799 670.271 656.584 671.754 638.854L682.189 513.974C667.049 513.797 651.908 513.782 636.762 513.929C638.326 500.034 639.533 484.997 640.617 471.033C660.1 471.084 679.588 471.004 699.07 470.792Z" fill="#FEFEFE"/>
<path d="M685.002 577.898C695.596 578.021 706.195 578.264 716.783 578.626C716.104 604.324 712.816 632.707 710.777 658.371C710.01 668.074 709.676 677.566 708.785 687.34C698.104 686.508 687.398 686.068 676.688 686.01C678.873 649.916 682.893 614.139 685.002 577.898Z" fill="#99CDDF"/>
<path d="M757.717 546.217C764.104 546.18 770.496 546.209 776.883 546.304C775.869 550.937 773.191 558.697 771.662 563.454C767.285 577.079 762.65 590.279 758.572 604.025C756.645 609.387 755.602 614.49 753.223 619.881C756.217 596.836 756.732 569.54 757.717 546.217Z" fill="#99CDDF"/>
</svg>
