<svg width="1200" height="896" viewBox="0 0 1200 896" fill="none" xmlns="http://www.w3.org/2000/svg">
<path d="M600.187 15C605.029 17.2029 677.095 87.2007 687.438 96.9337L881.85 279.927C920.494 316.299 962.567 354.8 1000.06 392.167L867.371 516.83C846.343 536.665 825.398 557.903 803.986 577.173C824.208 577.028 844.438 576.999 864.669 577.087C865.672 586.441 868.061 597.468 869.871 606.854C871.555 604.888 873.318 602.989 875.152 601.161C904.236 572.284 934.636 577.166 971.814 576.95C997.873 576.624 1023.94 576.497 1050 576.568C1049.26 600.184 1041.8 625.411 1039.61 648.999C1038.18 664.518 1038.48 679.684 1037.86 695.061C1036.79 716.607 1035.59 738.154 1034.28 759.691C1032.37 791.387 1033.81 818.773 1009.71 842.96C977.142 875.628 939.338 861.011 900.373 854.678C874.603 850.609 848.771 846.926 822.899 843.618C752.219 835.043 681.123 830.365 609.933 829.605C610.293 807.596 613.655 777.475 615.488 755.027C611.86 758.767 604.15 767.286 599.755 768.932L598.047 767.913C592.092 762.215 586.036 756.635 579.88 751.164C578.414 776.926 573.564 804.523 572.559 829.644C534.526 829.816 490.496 833.187 452.404 835.741L454.024 822.354C430.158 838.351 416.991 839.668 388.846 842.631C382.57 843.297 373.923 844.418 367.806 844.503C361.192 844.59 351.947 841.313 344.988 841.776C342.789 843.603 343.293 844.229 342.63 847.585C278.847 855.1 213.089 869.476 150 882C159.249 793.519 171.335 704.968 180.69 616.465C182.087 603.251 184.291 590.078 185.093 576.803C254.995 575.993 326.076 577.718 396.216 577.019L199.925 392.131C219.019 373.396 239.67 354.537 259.181 336.022L419.122 185.661L542.552 69.4415C561.619 51.1405 580.832 32.9933 600.187 15Z" fill="#A0D2E8"/>
<path d="M600.046 37C604.143 38.7402 681.542 113.23 691.46 122.581L977.634 391.926L764.143 592.905C792.586 592.252 822.231 592.627 850.785 592.646C855.87 617.874 861.613 648.419 865.498 673.686C866.659 650.674 869.868 629.085 886.895 611.889C894.922 603.753 905.021 597.964 916.109 595.145C929.778 591.653 954.737 592.69 969.725 592.678L1033 592.587C1031.81 600.555 1030.71 609.017 1029.08 616.869C1019.55 662.948 1023.47 710.115 1018.85 756.906C1016.33 782.291 1019.71 806.909 1001.59 828.197C976.324 857.906 941.131 844.301 908.827 838.724C904.817 838.027 898.807 833.97 895.503 834.213C895.707 835.545 895.707 835.49 895.487 836.821C890.27 836.821 869.931 833.406 863.646 832.489C844.955 829.748 826.226 827.266 807.464 825.048C805.549 816.096 802.992 791.847 797.624 786.623C795.318 785.839 795.16 785.91 792.681 786.091C790.075 788.573 783.226 816.465 781.28 822.495C776.744 822.159 772.131 821.72 767.603 821.266C720.908 816.629 674.142 815.101 627.274 813.058C628.294 783.098 632.359 745.494 634.815 715.011C623.633 725.859 611.824 736.628 600.493 747.546C590.112 737.678 578.472 726.171 567.782 716.827L566.856 717.525L566.53 720.118C563.383 751.212 560.396 782.315 557.572 813.441C546.78 814.655 533.716 814.811 522.72 815.282C504.991 816.073 487.272 817.045 469.563 818.204L481.141 714.987L484.238 688.137C484.852 683.014 487.201 677.407 483.283 673.804C479.064 674.713 479.526 689.696 478.827 693.988C473.638 725.796 477.762 765.773 459.284 793.422C442.748 818.157 413.793 824.774 386.038 826.458C361.788 828.503 352.266 829.474 331.788 815.156L329.024 832.765C275.135 840.918 221.446 850.333 168 861C172.13 818.76 177.945 774.953 182.869 732.618C188.002 685.944 193.4 639.305 199.063 592.694L356.634 592.641L355.256 604.555C375.769 592.637 388.519 592.23 411.75 592.542C420.101 592.653 427.849 592.506 436.33 593.25C415.398 571.638 386.709 545.959 364.409 525.055L222.829 391.917L457.007 171.874C504.323 127.256 553.368 82.1661 600.046 37Z" fill="#092B4C"/>
<path d="M606.415 128.439L607.911 128C608.044 130.089 606.031 133.185 605.357 135.386C596.544 164.176 599.427 193.132 618.393 217.164C622.758 222.69 628.43 228.605 632.496 234.171C667.783 269.214 693.856 291.89 692.68 346.608C692.634 348.669 692.265 354.812 693.417 355.991C695.281 354.55 695.595 354.113 697.114 352.27C712.548 330.516 717.061 313.284 712.548 286.305C711.592 280.603 710.229 274.977 708.467 269.469C729.376 290.337 743.846 316.7 753.624 344.477C756.657 353.072 759 364.513 762 372.42C755.591 375.82 748.947 379.503 742.35 382.483C717.304 395.663 691.129 408.391 665.84 421.397C658.287 407.416 652.168 394.74 640.228 383.925C639.249 392.203 635.739 411.73 619.146 403.828C609.839 399.394 618.629 378.526 619.577 370.968C620.407 364.325 620.462 354.008 618.974 346.258L618.777 345.271C613.795 330.092 603.321 319.693 590.174 311.18C603.274 349.082 580.018 368.798 557.194 395.38C550.137 403.598 543.132 413.225 536.647 422C513.79 409.757 490.694 397.962 467.374 386.623C457.942 381.919 448.274 377.622 439 372.631C449.178 331.639 475.807 286.576 508.059 259.618C505.799 274.44 503.733 322.414 536.29 312.192C561.457 304.29 540.549 265.084 537.642 245.857C531.783 207.111 546.862 170.014 578.817 146.004C586.021 140.449 597.742 131.966 606.415 128.439Z" fill="#F07424"/>
<path d="M508.032 259.375C505.773 274.219 503.708 322.265 536.252 312.027C561.408 304.114 540.509 264.849 537.603 245.593C531.746 206.789 546.82 169.636 578.762 145.591C585.964 140.028 597.68 131.532 606.349 128L604.908 131.686C600.742 134.446 598.322 138.675 595.229 142.508C583.395 157.144 572.996 176.255 571.623 195.429C567.192 203.806 572.039 230.555 574.858 239.779C577.721 249.242 581.578 258.374 586.355 267.025C598.189 288.39 621.902 318.294 618.707 345.156C613.727 329.956 603.256 319.539 590.115 311.014C603.209 348.973 579.963 368.719 557.148 395.34C550.093 403.571 543.091 413.211 536.609 422C513.76 409.738 490.674 397.926 467.363 386.57C457.935 381.859 448.27 377.555 439 372.557C449.174 331.504 475.793 286.373 508.032 259.375Z" fill="#E35222"/>
<path d="M708.047 269C729.121 290.05 743.704 316.643 753.559 344.663C756.615 353.333 758.975 364.873 762 372.849C755.541 376.279 748.845 379.994 742.196 383C733.78 377.693 735.895 361.565 728.158 350.616L727.423 350.714C726.445 366.468 705.592 374.152 693.03 365.289C689.548 362.829 695.959 356.791 696.606 352.523C712.161 330.58 716.709 313.198 712.161 285.983C711.197 280.232 709.824 274.556 708.047 269Z" fill="#F07424"/>
<path d="M606.226 128.439L607.743 128C607.878 130.086 605.837 133.175 605.153 135.373C596.217 164.112 599.14 193.018 618.372 217.006C622.797 222.523 628.549 228.428 632.672 233.984C633.697 237.551 635.881 238.346 636 240.886C634.761 242.274 633.052 244.525 631.465 245.193C629.462 243.589 628.66 242.808 626.889 240.949C618.5 238.008 611.668 248.759 608.315 255C596.129 239.091 589.989 226.925 586.041 207.369C582.211 201.033 583.944 186.098 584.491 178.486C571.233 180.256 578.206 190.046 571 195.649C572.394 176.536 582.942 157.488 594.946 142.9C598.083 139.079 600.538 134.864 604.764 132.113L606.226 128.439Z" fill="#FAB446"/>
<path d="M571 195.32C572.403 176.273 583.025 157.289 595.113 142.75C598.272 138.943 600.745 134.742 605 132C601.889 136.98 601.712 139.19 599.48 143.14C587.498 164.431 582.618 182.505 586.146 207C582.289 200.686 584.034 185.801 584.586 178.215C571.235 179.979 578.256 189.736 571 195.32Z" fill="#F07424"/>
<path d="M352.181 324.478C363.004 322.102 376.294 318.162 387.267 315.229C411.958 308.389 436.767 301.979 461.682 296C458.425 301.093 454.879 308.15 451.526 313.695C441.163 317.115 361.733 337.524 359.152 340.305L359.511 342.054C363.186 346.903 372.849 350.442 378.433 353.276L406.708 367.887L513.796 421.695C532.968 431.252 556.934 442.506 575.119 452.974C577.723 441.521 583.075 432.412 595.458 430.012C601.68 428.798 608.124 430.108 613.374 433.657C620.255 438.347 622.837 444.388 624.234 452.203C637.119 446.666 654.549 437.347 667.457 430.934C696.58 416.533 725.623 401.959 754.58 387.213L808.642 359.9C817.414 355.477 832.034 348.623 839.646 343.679C840.667 341.084 840.486 342.404 840.094 339.561C835.315 337.222 827.271 335.45 821.974 333.891C809.858 330.319 797.27 327.315 785.263 323.395C776.694 321.78 760.497 316.983 752.233 314.438C749.008 309.851 744.244 301.35 741.216 296.288C754.76 300.492 771.255 302.6 784.439 307.616C804.458 312.39 827.93 320.413 847.07 324.565C852.422 321.243 856.047 318.234 862.843 320.128C878.719 324.55 886.119 347.215 869.71 356.357C863.77 359.665 856.566 357.849 850.342 355.88C775.266 394.351 699.931 432.314 624.336 469.766C624.368 487.159 624.085 505.768 624.72 523.057C679.441 493.22 733.902 462.899 788.089 432.097C795.387 427.954 837.292 404.692 841.733 400.589C840.007 391.567 819.486 388.847 811.16 385.587C817.861 382.459 824.492 379.269 831.391 376.572C836.32 377.947 841.568 379.312 846.426 380.874C858.355 372.621 870.801 372.144 878.656 385.834C891.251 385.345 922.351 384.351 934.216 385.66C936.224 387.759 938.343 389.803 940 392.176C936.971 395.088 933.164 398.97 929.892 401.395C913.381 401.49 895.928 401.878 879.488 401.604C871.625 412.725 867.575 414.822 853.959 412.389C809.614 438.233 764.994 463.589 720.09 488.455L654.73 524.824C645.289 530.119 632.827 536.572 623.998 542.091C625.2 558.023 623.99 576.697 624.681 593L613.978 592.989C613.915 579.875 613.349 562.061 614.033 549.324C613.161 518.619 615.249 480.779 613.154 449.848C609.199 434.041 586.127 437.494 585.946 453.832C585.515 494.598 585.954 535.414 585.798 576.192C585.773 581.334 585.649 586.707 585.946 591.815C583.906 590.175 583.671 590.394 580.928 590.528L580.213 590.569L579.442 589.224C579.788 586.507 580.48 581.303 579.134 578.902C578.64 579.501 577.359 588.73 577.277 589.889L577.239 590.468C576.08 588.093 576.773 546.408 576.793 540.492C573.42 538.704 571.894 537.815 568.787 535.578C571.091 535.639 573.477 536.855 575.663 537.749L577.293 537C579.985 533.416 580.56 528.516 578.131 524.652C576.439 524.397 575.051 523.941 573.418 523.462L573.773 522.564L574.598 521.933C576.153 519.248 575.486 476.464 575.469 469.857C557.928 462.359 532.538 448.137 514.887 439.175L408.39 385.94C389.126 376.247 368.695 364.911 349.353 355.962C348.502 356.256 347.645 356.539 346.785 356.805C335.948 360.15 325.218 357.691 321.667 345.635C318.393 334.524 327.677 321.999 338.499 319.674C344.281 318.434 347.77 321.373 352.181 324.478Z" fill="#E9F4F7"/>
<path d="M614.335 549.246C616.292 555.517 613.525 576.337 616.944 579.833L617.219 575.97L618.021 576.08C618.72 580.537 618.343 586.656 618.217 591.294L618.996 591.719C622.666 587.903 619.263 577.87 620.929 574.255C624.033 578.322 621.322 588.402 623.185 590.824C624.914 586.327 623.074 551.224 624.316 542C625.519 557.96 624.308 576.667 625 593L614.28 592.989C614.217 579.852 613.651 562.005 614.335 549.246Z" fill="#D4EBF2"/>
<path d="M397.269 616.584C412.875 616.388 434.905 613.254 447.659 623.809C455 629.884 459.045 637.079 459.913 646.503C461.029 658.617 451.069 751.353 447.635 763.867C445.648 771.205 442.02 778.01 437.023 783.765C425.227 797.439 413.241 799.764 396.413 801.135C379.385 803.507 359.029 808.207 345.154 795.692C339.829 790.892 335.788 781.142 336.009 774.055C337.386 754.642 339.092 735.33 341.989 715.933C345.421 692.964 345.714 662.564 354.195 641.318C361.06 624.119 379.875 617.318 397.269 616.584Z" fill="#F2802C"/>
<path d="M443.159 704.197C445.796 703.995 445.025 703.681 447 704.837C446.898 719.961 443.436 737.836 442.164 753.132C441.292 763.616 437.154 775.912 428.846 782.943C424.166 786.975 418.761 790.069 412.919 792.069C402.927 795.388 375.309 797.396 364.402 796.934C333.479 795.623 344.449 754.678 346.844 735.274C347.325 727.891 348.923 718.016 349.645 710.026C357.999 709.236 366.367 708.611 374.745 708.134C372.703 723.477 369.405 749.679 368.985 764.546C371.542 768.843 374.008 772.006 379.452 772.561C391.135 773.702 412.281 773.601 415.811 758.633C419.596 742.57 420.487 722.298 422.652 705.494C429.387 704.892 436.392 704.588 443.159 704.197Z" fill="#E35222"/>
<path d="M404.725 651.408C411.057 650.954 415.604 649.816 419.856 655.463C421.284 663.17 411.707 755.573 408.542 759.98C404.994 764.912 399.003 765.343 393.573 766.143C386.859 766.606 381.213 769.17 377.026 762.371C376.648 748.939 380.446 725.204 381.686 711.049C383.605 694.379 384.334 677.372 387.212 660.849C388.735 652.106 398.275 651.793 404.725 651.408Z" fill="#092B4C"/>
<path d="M293.184 617.005L331 617.012C327.525 643.507 325.165 670.91 322.17 697.492L309.107 811.779C296.085 813.406 282.803 815.644 269.813 817.685C272.76 790.987 276.415 762.426 278.67 735.775C273.372 736.088 267.627 736.722 262.304 737.206C256.096 737.972 249.819 738.825 243.584 739.249C243.672 743.738 241.485 761.229 240.942 766.291L234.345 824.585C221.36 826.658 207.943 829.473 195 832C195.402 822.058 197.384 809.151 198.571 799.06C200.737 779.824 203.032 760.596 205.455 741.384C210.39 700.205 214.17 658.051 219.631 617L258.032 617.132C255.402 644.149 251.109 672.474 249.106 699.306C260.284 698.14 272.41 697.538 283.685 696.85C287.473 672.788 290.193 641.784 293.184 617.005Z" fill="#F2802C"/>
<path d="M306.159 714.326C308.314 714.014 311.316 713.586 313 714.879C312.95 719.403 312.478 723.802 311.863 728.288C308.343 753.945 307.262 780.702 302.672 806.173C292.616 808.463 288.475 809.256 278.286 809.264C278.384 801.975 280.001 793.434 280.59 786.02C282.142 766.537 285.216 747.132 287.132 727.75C270.774 730.056 254.348 731.862 237.878 733.178C236.65 740.957 235.771 749.678 234.819 757.566C232.348 777.79 230.381 798.526 228.067 818.85L203 823C204.781 802.349 206.987 781.738 209.618 761.179C211.123 749.554 213.697 735.117 214.376 723.756C245.002 720.913 275.598 717.776 306.159 714.326Z" fill="#E35222"/>
<path d="M1004.83 617.072C1005.59 618.827 1003.59 627.252 1003.1 629.767C1000.37 643.814 999.43 655.947 999.071 670.193C986.251 675.695 973.314 680.894 960.252 685.794C961.456 673.981 966.76 656.298 952.141 654.131C944.89 653.05 927.323 652.557 926.563 662.796C924.03 696.682 922.512 730.49 920.487 764.399C918.562 782.035 932.993 780.439 945.32 783.014C959.61 786.004 956.998 753.699 957.358 744.509C952.251 743.962 946.775 743.116 941.652 742.427C941.895 730.419 943.083 718.42 943.255 705.903C961.284 707.594 979.289 709.496 997.264 711.625C997.201 718.365 996.927 725.104 996.435 731.837C996.248 740.173 994.745 751.937 994.605 759.523C993.861 800.712 988.409 832.438 938.101 820.431C929.794 818.45 920.666 818.403 911.428 814.834C905.437 812.571 899.947 809.158 895.261 804.782C887.604 797.495 881.62 784.211 882.019 773.566C883.17 740.831 885.859 709.613 888.065 676.8C889.724 652.08 893.297 625.994 921.926 618.791C932.375 616.16 947.174 617.202 958.281 617.212C973.799 617.306 989.317 617.259 1004.83 617.072Z" fill="#FEFDFD"/>
<path d="M891.756 713C899.441 713.126 909.059 714.477 916.596 715.946C916.179 731.935 915.049 747.633 913.738 763.575C911.799 787.127 935.924 789.647 953.455 789.397C962.978 783.24 962.939 776.659 963.567 766.238C964.117 757.026 964.509 747.735 964.784 738.508C958.809 737.408 954.963 737.031 948.948 736.576C948.972 730.976 949.279 725.158 949.491 719.551C956.21 720.619 986.632 723.469 989.772 725.935L990 728.684C988.532 753.452 994.86 817.935 958.801 815.955C948.604 815.398 921.911 811.361 912.505 807.687C907.615 805.833 903.155 803.006 899.386 799.378C887.14 787.48 888.709 771.593 889.581 755.856C890.375 741.547 891.929 727.349 891.756 713Z" fill="#A0D2E8"/>
<path d="M781.29 617C797.878 617.131 814.459 617.173 831.047 617.126C833.443 634.977 838.245 657.504 841.494 675.778C849.341 720.251 857.511 764.653 866 809L826.606 803.882C825.681 798.033 821.077 767.2 818.899 764.903C803.667 764.151 788.863 761.744 773.333 761.32C770.749 772.281 766.293 786.235 763.277 797.5C754.247 795.728 733.86 795.007 724 794.473C731.847 771.865 739.045 747.892 746.337 725.087L781.29 617Z" fill="#FEFDFD"/>
<path d="M760.628 704.013C767.401 703.895 776.486 704.586 783.415 704.957C780.475 714.124 777.756 725.099 775.2 734.517C791.065 735.014 807.088 737.466 823.063 737.985C821.111 727.85 819.677 717.19 818.29 706.961C825.947 707.684 833.732 708.258 841.414 708.888C845.356 738.008 852.53 771.902 858 801L839.541 798.735L833.466 797.996C831.09 785.056 828.598 772.13 826.01 759.229C809.573 756.799 785.407 754.991 769.251 754.292C765.614 765.046 761.694 778.907 758.629 789.883C751.143 789.003 741.635 788.68 734 788.264C742.27 762.326 753.785 729.824 760.628 704.013Z" fill="#A0D2E8"/>
<path d="M803.658 660C805.635 661.716 806.832 676.325 807.395 680.264L815 731C809.216 730.357 803.189 729.943 797.374 729.458C792.895 729.308 788.462 728.823 784 728.393C790.479 708.098 798.617 680.679 803.658 660Z" fill="#092B4C"/>
<path d="M480.566 617L589 617.001C588.608 626.717 586.806 640.134 585.778 650.067L550.43 650.333C547.395 686.157 543.199 724.044 539.541 759.993C538.872 770.248 537.356 780.707 536.686 791.258C524.916 792.435 508.566 792.703 496.687 793L511.994 650.608L477 651C477.408 641.362 479.293 626.731 480.566 617Z" fill="#F2802C"/>
<path d="M525.6 700.283C529.068 700.016 534.383 700.079 538 700C537.625 709.545 531.999 781.832 529.022 785.002C525.408 786.608 521.174 786.152 517.134 786.105C513.237 787.08 507.865 787.536 504.054 786.009C503.214 784.113 512.37 709.718 513.311 700.764L525.6 700.283Z" fill="#E35222"/>
<path d="M632.082 617.225C667.847 616.707 705.126 617.22 741 617.409C739.729 628.755 738.2 640.586 737.685 651.949C725.875 651.37 714.065 651.018 702.248 650.895C698.503 684.744 696.475 723.551 693.472 757.894L691.006 792L652.425 790.432C654.625 758.385 657.824 726.098 660.249 694.051C661.349 679.567 663.128 665.035 663.877 650.535L629 650.379C630.178 639.345 631.207 628.292 632.082 617.225Z" fill="#FEFDFD"/>
<path d="M665.885 700C674.256 700.032 682.628 700.134 691 700.315L684.513 785L659 784.552C661.014 767.408 661.627 749.715 663.433 732.484C664.547 721.825 665.398 710.684 665.885 700Z" fill="#A0D2E8"/>
<path d="M321.702 385.68C330.966 372.09 341.23 372.845 354.13 380.292L369.611 376.461C376.408 379.269 382.987 382.146 389.292 385.987C382.831 387.911 364.745 392.834 360.072 395.895C359.293 397.892 359.612 398.69 359.936 400.798C364.102 405.027 389.65 418.775 396.528 422.712C439.271 447.1 482.162 471.225 525.202 495.085L558.343 513.586C561.051 515.091 572.073 521.008 573.85 522.526L573.496 523.425C575.125 523.904 576.51 524.361 578.2 524.615C580.623 528.481 580.05 533.384 577.363 536.97L575.736 537.72C573.554 536.825 571.172 535.608 568.873 535.548C571.974 537.786 573.497 538.675 576.864 540.464C576.844 546.383 576.152 588.09 577.309 590.465L577.347 589.887C577.428 588.727 578.708 579.492 579.201 578.894C580.544 581.296 579.853 586.503 579.51 589.221L580.277 590.567L580.991 590.525C583.729 590.391 583.964 590.172 586 591.814C583.846 593.537 578.484 592.89 575.453 592.839C575.864 576.252 575.546 558.365 575.558 541.676L482.467 489.492C464.856 479.598 446.55 469.969 429.193 459.775C405.801 447.565 383.228 433.048 360.177 420.168C355.644 417.634 351.155 414.86 346.807 412.018C333.143 414.854 329.129 412.381 320.969 401.573C304.246 401.716 287.521 401.694 270.797 401.502L260 391.573L266.653 385.396C284.394 384.999 303.919 385.242 321.702 385.68Z" fill="#D4EBF2"/>
<path d="M429 460.04C432.789 459.88 434.544 460.147 437.954 461.755C459.819 472.067 480.241 485.509 501.253 497.202L542.911 519.849C550.614 524.123 558.469 527.97 565.415 533.604C567.013 534.9 566.456 535.164 568.852 535.662C571.957 537.895 573.482 538.783 576.853 540.568C576.833 546.475 576.14 588.099 577.299 590.47L577.336 589.893C577.418 588.735 578.699 579.519 579.193 578.922C580.538 581.319 579.846 586.516 579.502 589.229L580.27 590.572L580.985 590.53C583.726 590.397 583.962 590.178 586 591.816C583.844 593.536 578.475 592.89 575.44 592.84C575.852 576.285 575.533 558.434 575.545 541.778L482.34 489.698C464.707 479.824 446.378 470.213 429 460.04Z" fill="#FEFDFD"/>
<path d="M322 450.628C332.653 431.158 354.482 435.146 359.661 456.115C360.282 458.625 359.821 463.415 359.657 466.112L364.736 469.526C373.91 474.407 382.931 480 391.798 485.435C442.442 516.484 494.185 545.692 545.286 575.98C554.031 581.162 562.971 586.785 571.88 591.618L572 592.497C569.944 592.841 569.615 592.922 567.446 592.878C559.507 593.137 550.41 592.906 542.383 592.891C498.893 566.315 453.432 541.336 409.791 514.952C394.103 505.468 372.288 493.761 357.84 484.014C351.525 479.754 328.14 456.724 322 450.628Z" fill="#B1E1F1"/>
<path d="M567.434 592.989C564.953 590.929 552.608 585.625 548.284 583.079L495.121 551.859C485.984 546.547 477.345 543.627 470.405 535.547C469.824 534.869 459.884 531.472 457.427 529.944C459.211 528.866 462.674 531.675 466.715 531.916C438.025 513.922 407.668 497.544 378.982 479.412C374.4 476.515 368.051 473.464 364 470.059L364.193 469C373.39 473.906 382.436 479.527 391.326 484.991C442.103 516.2 493.981 545.559 545.216 576.004C553.984 581.213 562.948 586.865 571.879 591.723L572 592.606C569.938 592.951 569.609 593.033 567.434 592.989Z" fill="#E9F4F7"/>
<path d="M838.128 468.907C842.7 464.679 841.614 463.62 842.046 457.603C843.573 436.064 869.079 430.008 879 450.98C871.345 458.176 851.103 479.086 843.565 483.763C783.245 521.218 719.229 555.253 658.83 592.512L641.413 592.653C636.433 592.633 631.012 592.876 626 593C632.35 589.161 638.682 585.166 645.331 581.895C647.117 580.264 836.012 469.53 838.128 468.907Z" fill="#B5E4F3"/>
<path d="M645.281 581.904C647.062 580.273 835.465 469.623 837.575 469L838 469.84C817.441 482.318 796.787 494.632 776.032 506.782C767.527 511.86 749.832 521.615 743.326 528.086L743.885 527.959C733.51 536.398 705.387 551.785 692.77 559.204C682.506 565.24 658.118 580.42 648.129 585.098C644.362 587.67 642.33 588.326 641.373 592.654C636.406 592.634 630.999 592.876 626 593C632.333 589.164 638.649 585.172 645.281 581.904Z" fill="#E9F4F7"/>
<path d="M626 593C632.582 589.197 639.147 585.24 646.039 582C644.423 583.928 643.322 585.109 641.505 586.868C644 586.043 646.463 584.923 649 585.166C645.085 587.716 642.973 588.367 641.978 592.657C636.815 592.637 631.196 592.877 626 593Z" fill="#D4EBF2"/>
<path d="M767.789 409C770.961 410.958 769.793 428.62 769.777 432.73C744.394 446.916 719.129 461.653 693.509 475.32C690.107 477.136 685.926 480.039 682.541 481L681.776 480.071C680.197 471.156 678.122 462.746 676 453.94C686.707 449.893 701.162 442.234 711.633 437.034C730.404 427.797 749.12 418.453 767.789 409Z" fill="#E65A24"/>
<path d="M756.822 478L757.438 478.153L758 479.214C752.926 491.005 747.334 504.731 738.887 514.474C731.946 522.469 679.32 551.739 667.062 557.95C666.5 558.046 666.875 558.037 666 557.615C675.213 542.018 676.37 537.259 681.537 520.055C703.259 509.861 734.912 490.48 756.822 478Z" fill="#D33727"/>
<path d="M442 478C448.086 480.634 463.341 489.7 469.427 493.198C485.951 502.847 502.576 512.323 519.299 521.62C523.478 538.93 525.401 543.423 534 559C511.287 547.893 486.789 530.321 464.429 517.833C456.969 513.666 443.402 486.258 442 478Z" fill="#C52C2A"/>
<path d="M456.238 445.783C455.776 439.497 453.658 424.522 456.31 420L524 454.244C521.517 463.308 518.984 471.569 518.256 481C497.329 469.264 476.82 458.304 456.238 445.783Z" fill="#E35222"/>
<path d="M431.056 408C439.418 412.13 447.733 416.35 456 420.66C453.306 425.104 455.457 439.822 455.925 446C448.687 442.94 438.192 436.961 431 433.118C431.072 424.745 431.092 416.371 431.056 408Z" fill="#E35222"/>
<path d="M723.006 675L738 675.061L723.654 720.019C722.132 724.927 720.983 728.278 719 733C721.194 717.991 722.045 691.05 723.006 675Z" fill="#A0D2E8"/>
<path d="M768 356C771.6 356.965 782.235 359.296 784 361.711L781.893 362.974C778.052 364.558 775.246 366.057 771.592 368L768 356Z" fill="#A0D2E8"/>
<path d="M432 355C432.04 355.982 429.233 366.131 428.774 368L419.934 363.491L417 361.794L417.186 360.638C419.468 359.086 428.464 356.396 432 355Z" fill="#A0D2E8"/>
</svg>
