<svg width="1200" height="896" viewBox="0 0 1200 896" fill="none" xmlns="http://www.w3.org/2000/svg">
<path d="M600.106 3.83273C604.97 6.04688 677.358 76.3667 687.746 86.1445L883.023 269.983C921.837 306.522 964.099 345.202 1001.76 382.741L868.479 507.978C847.356 527.905 826.32 549.241 804.811 568.6C825.124 568.454 845.444 568.425 865.764 568.514C866.771 577.91 869.172 588.988 870.99 598.418C872.682 596.443 874.452 594.534 876.294 592.698C905.507 563.689 936.043 568.592 973.385 568.377C999.561 568.048 1025.74 567.921 1051.92 567.992C1051.17 591.717 1043.68 617.06 1041.48 640.756C1040.04 656.347 1040.35 671.583 1039.73 687.031C1038.65 708.677 1037.45 730.322 1036.12 751.96C1034.21 783.802 1035.66 811.314 1011.45 835.613C978.737 868.431 940.764 853.746 901.627 847.384C875.743 843.298 849.796 839.597 823.809 836.274C752.815 827.66 681.403 822.959 609.897 822.195C610.259 800.085 613.635 769.826 615.476 747.275C611.833 751.031 604.089 759.59 599.674 761.243L597.958 760.22C591.977 754.495 585.893 748.889 579.71 743.393C578.237 769.275 573.367 796.999 572.356 822.235C534.155 822.408 489.93 825.794 451.668 828.361L453.295 814.912C429.323 830.983 416.098 832.306 387.827 835.282C381.524 835.951 372.838 837.077 366.694 837.164C360.05 837.25 350.765 833.959 343.775 834.424C341.565 836.258 342.072 836.888 341.405 840.258C277.34 847.809 211.289 862.25 147.919 874.833C157.211 785.944 169.349 696.984 178.747 608.073C180.15 594.799 182.363 581.564 183.17 568.229C253.382 567.414 324.779 569.147 395.23 568.445L198.067 382.705C217.246 363.883 237.988 344.936 257.585 326.337L418.238 175.281L542.216 58.5259C561.368 40.141 580.667 21.9097 600.106 3.83273Z" fill="#A0D2E8"/>
<path d="M602.044 25C606.159 26.748 683.916 101.599 693.88 110.995L981.378 381.649L766.9 583.603C795.475 582.947 825.257 583.324 853.943 583.343C859.051 608.693 864.821 639.387 868.723 664.777C869.89 641.654 873.114 619.959 890.22 602.68C898.284 594.504 908.43 588.687 919.568 585.855C933.3 582.345 958.376 583.387 973.432 583.375L1037 583.284C1035.8 591.29 1034.7 599.793 1033.07 607.684C1023.49 653.987 1027.43 701.383 1022.78 748.401C1020.25 773.909 1023.65 798.646 1005.44 820.038C980.062 849.891 944.707 836.22 912.253 830.616C908.225 829.916 902.186 825.839 898.868 826.083C899.073 827.421 899.073 827.366 898.852 828.704C893.61 828.704 873.177 825.272 866.863 824.351C848.086 821.597 829.269 819.102 810.421 816.874C808.498 807.878 805.928 783.511 800.536 778.262C798.219 777.475 798.061 777.546 795.57 777.727C792.953 780.222 786.071 808.248 784.116 814.309C779.56 813.97 774.925 813.529 770.376 813.073C723.465 808.414 676.483 806.879 629.398 804.825C630.423 774.72 634.506 736.934 636.974 706.302C625.74 717.202 613.877 728.024 602.494 738.996C592.065 729.079 580.37 717.517 569.631 708.128L568.701 708.828L568.372 711.433C565.211 742.679 562.211 773.933 559.373 805.21C548.531 806.43 535.408 806.588 524.361 807.06C506.55 807.855 488.748 808.831 470.958 809.996L482.589 706.278L485.701 679.298C486.317 674.151 488.677 668.516 484.742 664.895C480.502 665.808 480.967 680.864 480.264 685.177C475.051 717.139 479.195 757.31 460.631 785.093C444.019 809.948 414.931 816.599 387.046 818.291C362.685 820.345 353.118 821.321 332.546 806.934L329.769 824.627C275.631 832.82 221.693 842.28 168 853C172.15 810.554 177.992 766.535 182.938 723.995C188.094 677.094 193.518 630.229 199.208 583.391L357.507 583.338L356.123 595.31C376.73 583.334 389.54 582.925 412.876 583.238C421.266 583.35 429.051 583.202 437.57 583.95C416.541 562.232 387.72 536.43 365.317 515.423L223.083 381.639L458.343 160.528C505.878 115.694 555.151 70.3852 602.044 25Z" fill="#092B4C"/>
<path d="M606.371 117.276L607.877 116.833C608.011 118.936 605.985 122.052 605.307 124.269C596.439 153.254 599.339 182.408 618.424 206.603C622.815 212.167 628.522 218.123 632.614 223.725C668.119 259.007 694.353 281.838 693.171 336.928C693.123 339.004 692.753 345.187 693.912 346.376C695.788 344.924 696.103 344.484 697.633 342.628C713.162 320.727 717.703 303.379 713.162 276.215C712.2 270.474 710.829 264.809 709.055 259.264C730.095 280.274 744.655 306.817 754.493 334.784C757.543 343.437 759.9 354.955 762.919 362.916C756.471 366.338 749.786 370.047 743.149 373.048C717.947 386.317 691.61 399.132 666.164 412.227C658.564 398.15 652.408 385.388 640.394 374.499C639.409 382.834 635.877 402.493 619.181 394.537C609.816 390.074 618.661 369.064 619.615 361.453C620.45 354.766 620.505 344.378 619.008 336.577L618.81 335.582C613.797 320.301 603.257 309.83 590.03 301.259C603.21 339.419 579.81 359.27 556.845 386.032C549.744 394.306 542.696 403.998 536.171 412.833C513.172 400.507 489.933 388.632 466.469 377.216C456.978 372.48 447.25 368.154 437.919 363.128C448.159 321.858 474.954 276.488 507.406 249.346C505.132 264.268 503.053 312.57 535.811 302.278C561.135 294.323 540.097 254.85 537.172 235.492C531.277 196.482 546.449 159.133 578.602 134.959C585.852 129.367 597.645 120.826 606.371 117.276Z" fill="#F07424"/>
<path d="M507.334 249.654C505.063 264.548 502.986 312.759 535.711 302.487C561.008 294.546 539.992 255.148 537.07 235.826C531.181 196.89 546.338 159.611 578.458 135.483C585.7 129.901 597.48 121.377 606.198 117.833L604.749 121.531C600.56 124.3 598.126 128.543 595.016 132.389C583.117 147.076 572.66 166.251 571.278 185.491C566.823 193.896 571.698 220.737 574.532 229.992C577.411 239.487 581.29 248.65 586.093 257.33C597.992 278.768 621.837 308.774 618.625 335.728C613.616 320.476 603.087 310.024 589.873 301.469C603.04 339.557 579.664 359.371 556.722 386.083C549.629 394.341 542.589 404.015 536.07 412.833C513.095 400.53 489.879 388.678 466.44 377.283C456.959 372.557 447.24 368.238 437.919 363.222C448.149 322.029 474.916 276.745 507.334 249.654Z" fill="#E35222"/>
<path d="M708.967 258.833C730.041 279.882 744.625 306.476 754.479 334.496C757.535 343.165 759.895 354.705 762.919 362.682C756.461 366.11 749.765 369.826 743.117 372.833C734.7 367.526 736.816 351.397 729.078 340.448L728.344 340.547C727.365 356.3 706.512 363.985 693.949 355.122C690.467 352.662 696.879 346.622 697.526 342.355C713.081 320.412 717.629 303.031 713.081 275.816C712.118 270.064 710.744 264.388 708.967 258.833Z" fill="#F07424"/>
<path d="M606.145 117.275L607.663 116.833C607.798 118.935 605.756 122.048 605.073 124.264C596.136 153.229 599.059 182.361 618.292 206.539C622.717 212.1 628.468 218.052 632.591 223.65C633.616 227.246 635.8 228.047 635.919 230.608C634.68 232.007 632.972 234.275 631.383 234.948C629.382 233.332 628.579 232.545 626.808 230.671C618.419 227.707 611.587 238.543 608.235 244.833C596.049 228.799 589.908 216.536 585.96 196.826C582.131 190.442 583.863 175.388 584.411 167.716C571.153 169.5 578.125 179.367 570.919 185.013C572.314 165.751 582.862 146.553 594.865 131.849C598.003 127.999 600.458 123.75 604.684 120.978L606.145 117.275Z" fill="#FAB446"/>
<path d="M570.919 184.997C572.323 165.695 582.945 146.459 595.032 131.726C598.192 127.868 600.664 123.611 604.919 120.833C601.808 125.879 601.632 128.118 599.4 132.121C587.417 153.697 582.537 172.011 586.065 196.833C582.209 190.436 583.953 175.352 584.505 167.665C571.155 169.452 578.176 179.339 570.919 184.997Z" fill="#F07424"/>
<path d="M351.202 314.503C362.06 312.111 375.392 308.144 386.4 305.192C411.172 298.305 436.061 291.852 461.056 285.833C457.788 290.96 454.231 298.065 450.867 303.648C440.471 307.091 360.784 327.635 358.196 330.436L358.556 332.198C362.242 337.078 371.937 340.641 377.538 343.494L405.904 358.204L513.339 412.374C532.572 421.995 556.616 433.326 574.86 443.864C577.471 432.335 582.841 423.163 595.264 420.748C601.507 419.525 607.971 420.845 613.238 424.417C620.142 429.138 622.732 435.221 624.134 443.088C637.061 437.514 654.546 428.131 667.497 421.676C696.713 407.178 725.85 392.505 754.901 377.66L809.137 350.163C817.938 345.71 832.605 338.811 840.242 333.833C841.265 331.22 841.084 332.548 840.691 329.687C835.896 327.333 827.827 325.549 822.512 323.979C810.357 320.383 797.729 317.359 785.683 313.412C777.086 311.786 760.837 306.956 752.547 304.395C749.311 299.778 744.532 291.219 741.493 286.122C755.082 290.355 771.631 292.476 784.857 297.528C804.94 302.333 828.488 310.41 847.69 314.589C853.059 311.245 856.696 308.217 863.514 310.123C879.441 314.575 886.865 337.393 870.403 346.596C864.443 349.927 857.216 348.098 850.973 346.116C775.654 384.846 700.075 423.065 624.236 460.77C624.267 478.28 623.984 497.013 624.622 514.419C679.519 484.381 734.156 453.855 788.518 422.847C795.839 418.675 837.88 395.256 842.336 391.126C840.604 382.043 820.017 379.306 811.664 376.024C818.387 372.875 825.04 369.663 831.96 366.949C836.904 368.332 842.171 369.706 847.044 371.278C859.011 362.97 871.497 362.49 879.378 376.272C892.014 375.78 923.213 374.779 935.117 376.097C937.133 378.21 939.258 380.267 940.919 382.657C937.881 385.589 934.062 389.496 930.779 391.938C914.215 392.034 896.706 392.425 880.212 392.148C872.324 403.343 868.261 405.455 854.602 403.005C810.113 429.023 765.348 454.55 720.3 479.584L654.727 516.198C645.256 521.528 632.754 528.024 623.897 533.582C625.102 549.62 623.889 568.42 624.582 584.833L613.844 584.822C613.781 571.619 613.214 553.685 613.899 540.863C613.025 509.952 615.119 471.856 613.017 440.716C609.049 424.803 585.903 428.28 585.722 444.728C585.289 485.769 585.73 526.86 585.573 567.912C585.549 573.089 585.423 578.498 585.722 583.64C583.675 581.989 583.439 582.209 580.688 582.344L579.97 582.387L579.198 581.032C579.544 578.296 580.239 573.058 578.889 570.64C578.393 571.242 577.106 580.534 577.025 581.701L576.987 582.284C575.823 579.893 576.52 537.927 576.539 531.971C573.156 530.17 571.624 529.277 568.507 527.025C570.819 527.085 573.213 528.31 575.406 529.21L577.041 528.455C579.742 524.848 580.317 519.914 577.882 516.024C576.183 515.769 574.792 515.308 573.153 514.827L573.51 513.922L574.337 513.288C575.897 510.584 575.228 467.512 575.21 460.862C557.614 453.312 532.141 438.995 514.433 429.972L407.592 376.379C388.265 366.62 367.769 355.208 348.364 346.198C347.51 346.495 346.651 346.779 345.787 347.048C334.916 350.415 324.152 347.939 320.588 335.802C317.304 324.617 326.619 312.007 337.475 309.667C343.276 308.417 346.776 311.376 351.202 314.503Z" fill="#E9F4F7"/>
<path d="M614.254 540.221C616.211 546.615 613.444 567.844 616.863 571.408L617.138 567.47L617.94 567.581C618.64 572.126 618.262 578.365 618.137 583.093L618.915 583.527C622.585 579.637 619.182 569.407 620.848 565.721C623.953 569.867 621.241 580.144 623.104 582.614C624.833 578.029 622.994 542.237 624.236 532.833C625.438 549.106 624.228 568.18 624.919 584.833L614.199 584.822C614.136 571.426 613.57 553.23 614.254 540.221Z" fill="#D4EBF2"/>
<path d="M396.188 608.42C411.795 608.223 433.824 605.072 446.578 615.683C453.919 621.79 457.965 629.024 458.833 638.497C459.948 650.676 449.989 743.906 446.555 756.486C444.567 763.863 440.939 770.704 435.942 776.491C424.146 790.237 412.159 792.575 395.333 793.953C378.304 796.338 357.948 801.062 344.072 788.481C338.747 783.655 334.707 773.854 334.928 766.729C336.306 747.212 338.011 727.798 340.909 708.297C344.341 685.206 344.633 654.644 353.113 633.285C359.979 615.995 378.794 609.158 396.188 608.42Z" fill="#F2802C"/>
<path d="M443.042 696.03C445.704 695.827 444.926 695.514 446.919 696.671C446.816 711.795 443.321 729.669 442.037 744.965C441.157 755.449 436.979 767.745 428.591 774.776C423.865 778.807 418.408 781.9 412.511 783.9C402.422 787.22 374.539 789.228 363.527 788.767C332.307 787.455 343.383 746.512 345.801 727.106C346.286 719.724 347.9 709.85 348.629 701.858C357.063 701.069 365.511 700.444 373.969 699.967C371.909 715.31 368.578 741.512 368.153 756.378C370.736 760.675 373.226 763.839 378.722 764.394C390.518 765.534 411.867 765.433 415.43 750.465C419.252 734.403 420.152 714.131 422.338 697.327C429.137 696.725 436.209 696.421 443.042 696.03Z" fill="#E35222"/>
<path d="M403.933 643.241C410.561 642.786 415.319 641.649 419.768 647.295C421.263 655.003 411.241 747.406 407.928 751.813C404.215 756.745 397.945 757.176 392.263 757.976C385.237 758.439 379.328 761.003 374.947 754.204C374.551 740.772 378.526 717.036 379.823 702.883C381.831 686.212 382.593 669.204 385.606 652.682C387.199 643.939 397.184 643.625 403.933 643.241Z" fill="#092B4C"/>
<path d="M291.825 608.838L329.919 608.845C326.419 635.463 324.041 662.994 321.024 689.699L307.865 804.517C294.748 806.152 281.367 808.4 268.281 810.451C271.251 783.628 274.934 754.936 277.203 728.16C271.868 728.475 266.08 729.111 260.719 729.598C254.465 730.369 248.14 731.225 241.86 731.65C241.948 736.161 239.746 753.733 239.198 758.818L232.553 817.383C219.474 819.465 205.957 822.294 192.919 824.833C193.324 814.844 195.321 801.877 196.517 791.739C198.699 772.414 201.009 753.097 203.451 733.795C208.422 692.426 212.229 650.074 217.732 608.833L256.415 608.966C253.765 636.108 249.441 664.566 247.423 691.522C258.683 690.351 270.898 689.746 282.256 689.054C286.072 664.88 288.812 633.731 291.825 608.838Z" fill="#F2802C"/>
<path d="M305.016 706.162C307.191 705.847 310.221 705.415 311.919 706.72C311.869 711.285 311.393 715.725 310.773 720.252C307.219 746.145 306.13 773.146 301.498 798.851C291.351 801.161 287.172 801.963 276.889 801.971C276.988 794.615 278.62 785.995 279.215 778.514C280.781 758.852 283.883 739.269 285.817 719.71C269.309 722.036 252.734 723.859 236.114 725.187C234.875 733.037 233.989 741.839 233.027 749.799C230.535 770.207 228.55 791.134 226.213 811.644L200.919 815.833C202.716 794.992 204.941 774.191 207.596 753.445C209.117 741.713 211.713 727.144 212.399 715.678C243.302 712.81 274.177 709.643 305.016 706.162Z" fill="#E35222"/>
<path d="M1006.75 607.905C1007.52 609.678 1005.5 618.184 1005 620.724C1002.25 634.907 1001.3 647.157 1000.94 661.542C988.018 667.099 974.975 672.347 961.807 677.294C963.021 665.368 968.368 647.513 953.63 645.324C946.32 644.233 928.61 643.735 927.845 654.073C925.29 688.288 923.761 722.425 921.718 756.664C919.778 774.471 934.327 772.858 946.754 775.459C961.16 778.478 958.527 745.859 958.889 736.58C953.74 736.027 948.221 735.173 943.056 734.478C943.3 722.353 944.499 710.237 944.672 697.599C962.848 699.306 981 701.227 999.12 703.377C999.057 710.182 998.781 716.987 998.284 723.784C998.095 732.201 996.581 744.081 996.439 751.739C995.69 793.329 990.194 825.363 939.476 813.238C931.102 811.239 921.9 811.191 912.587 807.587C906.547 805.303 901.012 801.857 896.288 797.439C888.569 790.081 882.536 776.668 882.938 765.919C884.098 732.865 886.81 701.345 889.034 668.213C890.705 643.253 894.309 616.913 923.169 609.641C933.704 606.984 948.623 608.036 959.82 608.047C975.464 608.141 991.109 608.094 1006.75 607.905Z" fill="#FEFDFD"/>
<path d="M892.702 705.833C900.464 705.958 910.177 707.309 917.788 708.778C917.368 724.767 916.226 740.465 914.902 756.407C912.944 779.959 937.308 782.48 955.012 782.229C964.63 776.072 964.59 769.491 965.224 759.07C965.779 749.858 966.176 740.567 966.453 731.34C960.42 730.24 956.535 729.864 950.461 729.408C950.485 723.809 950.794 717.989 951.008 712.382C957.795 713.45 988.518 716.301 991.69 718.767L991.919 721.516C990.437 746.285 996.827 810.767 960.412 808.788C950.113 808.231 923.156 804.194 913.657 800.519C908.718 798.665 904.215 795.838 900.409 792.21C888.04 780.313 889.626 764.425 890.506 748.688C891.307 734.379 892.877 720.181 892.702 705.833Z" fill="#A0D2E8"/>
<path d="M782.613 608.833C799.318 608.964 816.015 609.005 832.72 608.957C835.133 626.809 839.968 649.336 843.241 667.61C851.144 712.083 859.37 756.485 867.919 800.833L828.248 795.714C827.317 789.865 822.679 759.033 820.487 756.736C805.146 755.983 790.24 753.577 774.6 753.153C771.997 764.113 767.509 778.067 764.473 789.332C755.379 787.561 734.849 786.839 724.919 786.306C732.822 763.697 740.07 739.725 747.413 716.92L782.613 608.833Z" fill="#FEFDFD"/>
<path d="M760.762 695.846C767.589 695.727 776.748 696.426 783.733 696.799C780.77 706.061 778.028 717.15 775.452 726.666C791.445 727.166 807.597 729.644 823.701 730.169C821.733 719.93 820.287 709.159 818.888 698.825C826.609 699.556 834.455 700.136 842.199 700.771C846.174 730.192 853.404 764.435 858.919 793.833L840.31 791.545L834.186 790.799C831.792 777.724 829.279 764.666 826.672 751.631C810.102 749.176 785.74 747.35 769.454 746.643C765.788 757.509 761.837 771.513 758.747 782.601C751.201 781.712 741.616 781.386 733.919 780.965C742.256 754.761 753.864 721.924 760.762 695.846Z" fill="#A0D2E8"/>
<path d="M804.212 651.833C806.253 653.547 807.488 668.158 808.069 672.096L815.919 722.833C809.949 722.191 803.728 721.776 797.725 721.29C793.101 721.142 788.527 720.656 783.919 720.226C790.608 699.931 799.008 672.511 804.212 651.833Z" fill="#092B4C"/>
<path d="M479.517 608.833L588.919 608.834C588.524 618.55 586.705 631.967 585.669 641.9L550.004 642.167C546.942 677.99 542.709 715.877 539.018 751.826C538.344 762.08 536.814 772.539 536.138 783.091C524.263 784.268 507.766 784.535 495.781 784.833L511.225 642.441L475.919 642.834C476.33 633.194 478.232 618.564 479.517 608.833Z" fill="#F2802C"/>
<path d="M524.52 692.119C527.988 691.849 533.303 691.912 536.919 691.833C536.545 701.488 530.919 774.604 527.942 777.812C524.328 779.436 520.094 778.974 516.055 778.926C512.158 779.913 506.785 780.375 502.974 778.831C502.134 776.913 511.29 701.663 512.231 692.605L524.52 692.119Z" fill="#E35222"/>
<path d="M632.028 608.061C668.113 607.536 705.724 608.055 741.919 608.247C740.637 619.722 739.094 631.689 738.575 643.18C726.659 642.596 714.744 642.241 702.82 642.114C699.043 676.351 696.997 715.602 693.966 750.336L691.479 784.833L652.554 783.245C654.773 750.833 658 718.177 660.447 685.765C661.557 671.114 663.351 656.417 664.107 641.751L628.919 641.593C630.108 630.432 631.147 619.253 632.028 608.061Z" fill="#FEFDFD"/>
<path d="M666.588 691.833C674.699 691.865 682.809 691.968 690.919 692.151L684.636 777.833L659.919 777.379C661.87 760.034 662.464 742.132 664.214 724.7C665.293 713.914 666.118 702.642 666.588 691.833Z" fill="#A0D2E8"/>
<path d="M320 376.562C329.32 362.91 339.648 363.667 352.626 371.149L368.204 367.3C375.041 370.121 381.662 373.011 388.004 376.87C381.503 378.804 363.307 383.748 358.606 386.824C357.821 388.829 358.142 389.632 358.468 391.749C362.66 395.997 388.365 409.809 395.285 413.764C438.29 438.264 481.445 462.499 524.748 486.469L558.093 505.055C560.817 506.567 571.907 512.51 573.695 514.035L573.338 514.939C574.978 515.42 576.371 515.879 578.072 516.134C580.509 520.018 579.933 524.943 577.229 528.545L575.592 529.299C573.397 528.4 571.001 527.177 568.687 527.117C571.807 529.365 573.34 530.257 576.727 532.055C576.707 538.001 576.01 579.899 577.176 582.286L577.213 581.704C577.295 580.539 578.582 571.262 579.079 570.662C580.43 573.075 579.735 578.305 579.388 581.037L580.162 582.389L580.88 582.346C583.634 582.211 583.87 581.991 585.919 583.641C583.752 585.373 578.357 584.722 575.307 584.672C575.722 568.008 575.401 550.038 575.413 533.273L481.751 480.85C464.033 470.911 445.614 461.237 428.15 450.997C404.615 438.73 381.904 424.147 358.712 411.207C354.151 408.663 349.635 405.876 345.258 403.021C331.512 405.87 327.473 403.386 319.263 392.527C302.436 392.672 285.61 392.649 268.784 392.456L257.919 382.481L264.614 376.277C282.464 375.877 302.108 376.122 320 376.562Z" fill="#D4EBF2"/>
<path d="M427.919 450.874C431.732 450.712 433.499 450.981 436.931 452.602C458.935 462.99 479.486 476.534 500.633 488.314L542.556 511.132C550.307 515.438 558.214 519.313 565.203 524.991C566.811 526.297 566.251 526.562 568.662 527.064C571.786 529.314 573.322 530.207 576.714 532.006C576.694 537.958 575.995 579.895 577.163 582.284L577.201 581.702C577.282 580.535 578.572 571.25 579.069 570.649C580.422 573.065 579.726 578.299 579.379 581.033L580.153 582.387L580.872 582.344C583.631 582.209 583.867 581.989 585.919 583.64C583.749 585.373 578.346 584.722 575.291 584.672C575.707 567.993 575.385 550.006 575.398 533.225L481.599 480.754C463.854 470.806 445.408 461.123 427.919 450.874Z" fill="#FEFDFD"/>
<path d="M319.919 441.542C330.615 421.947 352.532 425.96 357.731 447.064C358.354 449.592 357.892 454.411 357.728 457.126L362.828 460.563C372.037 465.474 381.094 471.103 389.997 476.574C440.844 507.823 492.793 537.22 544.1 567.702C552.879 572.919 561.856 578.578 570.799 583.442L570.919 584.327C568.855 584.673 568.525 584.754 566.348 584.71C558.377 584.97 549.243 584.739 541.185 584.724C497.521 557.975 451.878 532.834 408.062 506.281C392.311 496.736 370.409 484.953 355.903 475.144C349.563 470.856 326.085 447.678 319.919 441.542Z" fill="#B1E1F1"/>
<path d="M566.354 584.822C563.873 582.745 551.527 577.398 547.204 574.832L494.041 543.359C484.904 538.005 476.264 535.062 469.325 526.915C468.744 526.233 458.804 522.808 456.347 521.268C458.13 520.182 461.594 523.013 465.635 523.256C436.945 505.117 406.588 488.606 377.903 470.328C373.32 467.408 366.97 464.331 362.919 460.9L363.114 459.833C372.31 464.777 381.355 470.444 390.245 475.952C441.023 507.413 492.9 537.01 544.137 567.699C552.904 572.95 561.868 578.648 570.799 583.545L570.919 584.436C568.858 584.784 568.528 584.866 566.354 584.822Z" fill="#E9F4F7"/>
<path d="M839.048 459.939C843.619 455.684 842.534 454.618 842.966 448.563C844.493 426.885 869.999 420.788 879.919 441.896C872.264 449.14 852.022 470.184 844.485 474.892C784.165 512.588 720.148 546.842 659.75 584.341L642.332 584.484C637.352 584.463 631.931 584.709 626.919 584.833C633.268 580.97 639.602 576.948 646.25 573.656C648.036 572.014 836.932 460.566 839.048 459.939Z" fill="#B5E4F3"/>
<path d="M646.199 573.647C647.981 572.003 836.385 460.461 838.496 459.833L838.919 460.68C818.361 473.258 797.707 485.671 776.952 497.919C768.446 503.039 750.752 512.872 744.246 519.395L744.804 519.268C734.43 527.775 706.307 543.285 693.689 550.764C683.425 556.848 659.037 572.151 649.048 576.867C645.281 579.46 643.249 580.121 642.292 584.484C637.325 584.463 631.918 584.708 626.919 584.833C633.252 580.966 639.569 576.942 646.199 573.647Z" fill="#E9F4F7"/>
<path d="M626.919 584.833C633.215 581.031 639.495 577.073 646.088 573.833C644.543 575.761 643.49 576.942 641.75 578.701C644.137 577.875 646.493 576.757 648.919 577C645.175 579.549 643.154 580.2 642.202 584.49C637.264 584.469 631.889 584.711 626.919 584.833Z" fill="#D4EBF2"/>
<path d="M767.732 398.833C770.87 400.818 769.715 418.725 769.699 422.892C744.586 437.275 719.59 452.217 694.242 466.074C690.877 467.916 686.74 470.858 683.391 471.833L682.634 470.891C681.073 461.852 679.019 453.325 676.919 444.397C687.513 440.294 701.814 432.528 712.173 427.257C730.745 417.891 749.262 408.417 767.732 398.833Z" fill="#E65A24"/>
<path d="M757.728 468.833L758.351 468.985L758.919 470.047C753.789 481.837 748.138 495.564 739.598 505.306C732.581 513.301 679.384 542.572 666.993 548.782C666.425 548.879 666.803 548.87 665.919 548.447C675.233 532.85 676.401 528.091 681.626 510.887C703.584 500.694 735.581 481.313 757.728 468.833Z" fill="#D33727"/>
<path d="M440.919 468.833C447.072 471.466 462.491 480.532 468.645 484.03C485.348 493.68 502.154 503.155 519.059 512.453C523.284 529.763 525.227 534.257 533.919 549.833C510.96 538.726 486.196 521.155 463.592 508.665C456.052 504.498 442.337 477.091 440.919 468.833Z" fill="#C52C2A"/>
<path d="M455.157 436.616C454.696 430.33 452.577 415.354 455.23 410.833L522.919 445.077C520.436 454.139 517.903 462.401 517.175 471.833C496.248 460.096 475.74 449.135 455.157 436.616Z" fill="#E35222"/>
<path d="M432.054 398C440.081 402.239 447.564 406.577 455.5 411C452.914 415.561 455.479 430.66 455.929 437C448.979 433.859 438.905 427.724 432 423.779C432.07 415.186 432.089 406.592 432.054 398Z" fill="#E35222"/>
<path d="M723.136 666.833L738.919 666.895L723.819 711.852C722.216 716.761 721.007 720.112 718.919 724.833C721.229 709.824 722.125 682.883 723.136 666.833Z" fill="#A0D2E8"/>
<path d="M767.919 345.833C771.744 346.878 783.044 349.403 784.919 352.02L782.681 353.388C778.6 355.103 775.618 356.727 771.736 358.833L767.919 345.833Z" fill="#A0D2E8"/>
<path d="M431.919 345.833C431.959 346.814 429.152 356.964 428.694 358.833L419.852 354.323L416.919 352.627L417.104 351.471C419.387 349.919 428.383 347.229 431.919 345.833Z" fill="#A0D2E8"/>
</svg>
