<svg width="1200" height="896" viewBox="0 0 1200 896" fill="none" xmlns="http://www.w3.org/2000/svg">
<g clip-path="url(#clip0_1_3)">
<path d="M600.244 0.774567C642.449 41.6849 684.526 84.9479 726.217 126.602L1047.08 448.012L764.941 730.559L663.38 832.39C642.603 853.204 620.688 874.584 600.406 895.775C584.017 878.416 565.493 860.562 548.57 843.529L440.922 735.598L153.083 448.116C204.85 394.233 262.299 338.661 315.439 285.658L600.244 0.774567Z" fill="#9DCEE0"/>
<path d="M599.771 25.7746C604.737 29.4199 630.297 55.9319 635.991 61.6034L723.947 149.391L1022.08 447.621L600.55 868.775C597.15 867.526 209.869 480.025 178.083 447.607C188.698 435.242 208.622 416.579 220.557 404.662L304.878 320.434L599.771 25.7746Z" fill="#092D4F"/>
<path d="M603.509 135.92L606.928 133.775L608.3 134.148C608.265 136.44 607.965 136.583 606.843 138.549C591.256 190.286 605.883 225.229 641.05 263.642C669.594 292.44 695.592 322.313 700.314 364.124C701.77 377.03 701.608 388.839 701.702 401.791C729.86 369.958 727.992 337.167 718.677 298.945C752.105 335.25 765.275 373.366 777.083 420.196C743.347 439.681 706.543 458.054 672.224 477.133C664.341 461.612 657.28 446.253 644.846 433.728C643.047 440.371 639.619 455.707 633.861 457.652C605.694 467.159 621.462 424.772 621.779 414.014C622.173 400.626 621.813 393.737 619.379 384.303C612.078 365.69 604.298 359.525 589.173 347.498C589.987 350.241 590.673 353.019 591.239 355.823C601.881 406.323 556.756 437.916 530.883 477.775C497.602 457.874 458.629 438.238 424.083 419.827C437.248 370.524 460.491 322.244 499.401 288.004C496.303 309.554 496.116 362.519 531.692 348.515C558.19 338.084 532.795 286.82 531.237 265.682C528.044 222.393 541.854 183.485 575.453 154.824C583.869 147.643 593.569 140.453 603.509 135.92Z" fill="#ED7022"/>
<path d="M498.938 287.924C495.859 309.483 495.672 362.47 531.029 348.46C557.365 338.024 532.126 286.739 530.577 265.592C527.404 222.285 541.13 183.36 574.521 154.687C582.886 147.503 592.527 140.31 602.405 135.775C602.397 136.024 602.32 138.569 602.32 138.569C565.185 180.718 556.677 235.024 579.386 286.413C589.716 309.798 625.17 360.006 618.178 384.263C610.922 365.643 603.189 359.475 588.158 347.442C588.967 350.187 589.648 352.966 590.21 355.772C600.787 406.293 555.94 437.899 530.226 477.775C497.15 457.865 458.416 438.222 424.083 419.802C437.167 370.478 460.267 322.178 498.938 287.924Z" fill="#E24E22"/>
<path d="M608.968 282.775C588.478 261.644 579.094 211.673 586.717 184.391C589.332 175.035 600.259 142.701 606.628 138.775C590.929 190.648 605.662 225.684 641.083 264.199L634.36 271.562C621.491 259.97 616.891 272.993 608.968 282.775Z" fill="#F8AE41"/>
<path d="M436.077 333.953L448.289 330.775C445.899 335.317 442.543 342.24 439.986 346.451C439.388 348.081 438.811 349.625 437.254 350.538C422.736 359.054 345.161 375.022 337.761 383.502L338.055 384.786C344.234 392.051 381.177 410.158 391.237 415.666C425.756 434.755 460.481 453.47 495.405 471.806C521.434 485.589 547.734 498.89 573.157 513.784C575.71 501.609 580.767 490.845 593.879 487.425C600.276 485.743 607.093 486.74 612.746 490.186C621.524 495.602 624.727 504.143 626.937 513.644C654.891 497.292 689.781 479.718 718.694 464.51C747.847 449.023 776.897 433.331 805.836 417.438C814.734 412.635 860.33 390.515 862.172 383.37C857.316 376.547 783.201 359.039 770.149 353.012C765.721 350.963 764.676 351.143 762.809 346.045C760.103 341.034 757.422 336.002 754.793 330.949L767.374 334.211C801.22 343.45 836.41 355.671 869.331 364.211C874.778 360.572 879.985 356.985 886.905 358.904C912.127 365.902 908.701 412.792 877.408 402.247C876.106 401.805 874.813 401.339 873.528 400.847C863.936 404.597 847.073 414.55 837.301 419.956L781.094 450.635L680.421 504.641C662.684 514.151 643.637 523.916 626.363 534.007C626.483 553.684 626.277 575.115 627.074 594.688C683.855 561.735 740.413 528.41 796.749 494.717C807.446 488.296 856.913 459.292 863.456 452.093C861.641 442.728 838.312 437.804 829.91 434.994C837.387 431.431 844.555 427.975 852.211 424.795C857.735 426.482 863.533 428.15 868.946 430.106C882.272 419.859 893.311 420.415 903.743 434.398C904.06 434.824 904.377 435.253 904.685 435.685C922.807 434.99 946.187 433.644 964.001 435.031C966.193 437.413 969.131 440.425 971.083 442.907C967.683 446.541 964.198 450.463 960.387 453.622C942.907 453.547 921.505 453.334 904.171 454.359C895.041 467.614 892.609 469.017 876.68 466.768C793.931 517.668 710.558 567.542 626.577 616.38C626.569 626.179 625.995 669.454 627.262 676.626C632.358 673.241 638.259 669.711 643.543 666.575C685.371 641.744 726.188 613.079 768.324 589.029C769.703 587.516 778.096 582.537 780.366 581.13C782.327 579.454 796.372 570.973 799.156 569.225C816.772 558.128 834.757 547.395 852.331 536.222C866.308 527.333 862.814 525.701 865.4 510.92C866.402 506.259 868.929 501.563 873.254 499.265C887.787 491.545 896.703 498.08 903.631 510.425C897.705 518.707 874.65 542.207 866.42 548.346C854.018 557.597 835.254 568.891 821.774 577.215C799.961 590.853 778.053 604.33 756.043 617.646C712.759 643.82 669.929 671.674 626.8 698.32L626.98 790.137L615.135 802.775C615.229 793.161 615.187 783.488 615.161 773.874C614.913 689.727 615.366 605.566 615.255 521.418C615.255 517.938 614.57 509.269 612.986 506.245C611.033 502.565 607.564 499.931 603.496 499.047C599.206 498.119 594.718 499.021 591.121 501.537C586.179 505.006 585.503 509.937 584.655 515.357C583.739 587.586 584.604 661.023 584.569 733.355C580.733 734.169 578.11 732.619 574.458 731.136L574.168 716.57C573.844 709.956 574.189 704.387 574.905 697.815C576.091 686.942 574.496 675.572 573.416 664.69L573.23 616.679C567.928 613.359 560.893 609.224 556.066 605.481C551.118 603.478 537.726 595.089 532.577 591.966L488.232 565.141C432.281 532.013 377.828 500.973 322.928 465.565C307.919 469.325 303.662 464.763 295.15 453.507C277.622 453.889 257.897 454.289 240.467 453.737C236.48 450.699 232.605 446.4 229.083 442.731C231.206 440.113 233.731 437.487 236.026 434.991C252.547 433.991 278.874 435.266 295.966 435.631C306.213 420.265 316.435 420.472 331.174 429.311C336.495 428.023 342.684 426.086 348.023 424.566C356.029 428.135 362.25 430.964 369.902 435.202C361.678 437.842 339.053 442.912 337.32 451.322C344.236 459.824 416.215 501.663 430.221 510.018C477.567 538.319 525.056 566.38 572.686 594.202C573.193 574.291 573.391 554.372 573.282 534.455C565.224 528.699 541.481 516.468 531.817 511.146C499.575 493.37 467.178 475.877 434.63 458.668L365.033 420.938C353.759 414.819 337.721 405.484 326.317 400.548C280.956 421.864 292.16 336.055 330.119 364.254C363.512 356.088 401.601 343.162 436.077 333.953Z" fill="#DAEAEE"/>
<path d="M556.083 605.804L556.308 604.533C557.605 604.98 573.264 614.773 573.469 615.122C578.02 622.902 572.264 636.414 577.35 644.33C580.253 646.161 578.981 645.68 582.521 645.823C584.258 643.225 583.19 528.945 584.067 513.33L584.753 512.655L584.328 511.775C584.458 513.035 584.988 513.613 585.083 515.77C584.154 587.926 585.031 661.29 584.997 733.55C581.105 734.363 578.445 732.814 574.74 731.333L574.446 716.782C574.117 710.174 574.467 704.61 575.193 698.045C576.396 687.183 574.779 675.825 573.683 664.954L573.495 616.99C568.116 613.674 560.98 609.543 556.083 605.804Z" fill="white"/>
<path d="M628.083 676.897C633.177 673.531 639.075 670.02 644.357 666.901C686.167 642.204 726.966 613.694 769.083 589.775C768.031 593.382 767.637 592.057 764.838 595.07C755.019 601.523 745.354 608.948 735.698 615.13C716.745 627.27 697.449 639.297 678.359 651.272L644.023 672.696C639.435 675.525 634.632 677.741 630.455 680.775L628.76 680.749C628.015 678.908 628.118 678.917 628.083 676.897Z" fill="white"/>
<path d="M755.083 330.775L768.083 334.233C766.597 337.545 764.19 345.466 763.367 346.775C760.57 341.464 757.8 336.131 755.083 330.775Z" fill="white"/>
<path d="M437.083 334.221L449.083 330.775C446.736 335.701 443.437 343.208 440.924 347.775L439.768 347.383C441.234 343.831 441.181 343.199 441.162 339.262C440.178 336.457 439.367 336.135 437.083 334.221Z" fill="white"/>
<path d="M780.657 581.775L781.083 583.713C777.981 587.09 768.423 592.269 764.083 594.775C766.933 591.797 767.334 593.106 768.405 589.54C769.808 588.053 778.347 583.159 780.657 581.775Z" fill="#CFE6EC"/>
<path d="M297.083 510.252C307.209 493.699 324.328 489.058 335.005 508.512C338.754 515.344 338.498 521.844 338.669 529.342C346.01 534.988 359.557 542.253 367.722 547.692C392.429 564.151 422.714 580.771 446.515 597.87C456.802 602.832 478.989 617.444 489.315 623.9C517.162 641.47 545.128 658.846 573.214 676.036C574.471 673.66 574.153 667.822 574.177 664.787C575.256 675.643 576.849 686.986 575.664 697.833C574.949 704.389 574.605 709.945 574.928 716.544L574.179 716.775L574 698.559C559.122 687.806 534.748 673.856 518.681 663.779L388.307 582.617C372.444 572.617 350.689 560.675 336.176 549.768C326.345 542.381 304.971 519.923 297.083 510.252Z" fill="#9DCEE0"/>
<path d="M573.083 676.627C572.905 677.946 572.67 679.266 572.453 680.585L570.995 680.775C536.732 660.985 501.222 638.461 468.429 616.211C462.856 612.429 457.847 607.088 452.605 602.967C450.265 601.128 448.431 601.068 445.083 598.364L446.323 597.775C456.616 602.78 478.813 617.52 489.144 624.033C517.004 641.757 544.984 659.286 573.083 676.627Z" fill="white"/>
<path d="M783.646 462.775C786.915 467.336 785.966 483.516 785.923 490.03C780.411 494.403 697.43 543.82 690.589 545.775L689.39 544.784C687.673 534.843 685.827 525.691 683.083 515.989L783.646 462.775Z" fill="#E24E22"/>
<path d="M416.125 460.775C426.095 465.359 440.382 473.712 450.528 479.187L517.083 515.213C514.662 522.051 512.924 530.783 511.781 537.935C511.454 540.623 511.532 542.712 509.924 544.775C503.794 542.35 474.603 524.678 467.792 520.458C452.23 510.819 430.806 499.668 416.228 489.57C415.967 480.272 416.144 470.138 416.125 460.775Z" fill="#E24E22"/>
<path d="M771.22 543.775L772.079 544.486C772.402 553.012 755.899 582.607 748.945 588.16C726.678 605.941 699.284 620.974 674.849 635.775L674.083 634.594C681.812 617.287 684.286 611.487 689.557 593.439C698.043 586.617 715.718 577.293 725.436 571.371C740.587 562.144 755.857 552.575 771.22 543.775Z" fill="#C92E24"/>
<path d="M428.083 542.775C437.328 546.347 457.638 559.546 467.055 565.309C480.926 573.799 500.26 584.134 512.933 593.536C517.623 612.451 520.946 618.16 528.083 635.775C527.773 635.637 527.462 635.5 527.151 635.363C503.462 620.124 468.274 601.566 448.295 582.85C440.969 575.986 431.34 551.307 428.083 542.775Z" fill="#C92E24"/>
<path d="M574.357 717.006L575.068 716.775L575.344 731.332C578.809 732.813 581.297 734.363 584.937 733.55L585.083 802.775C581.914 798.81 577.533 794.22 574.083 790.392C574.425 766.167 574.221 741.282 574.357 717.006Z" fill="#CFE6EC"/>
<path d="M784.134 400.775C787.834 401.945 798.724 404.212 799.083 408.238L795.853 410.299L787.541 414.775C786.285 410.735 783.69 404.557 784.134 400.775Z" fill="#9DCEE0"/>
<path d="M413.634 401.775L415.696 402.054C416.968 405.343 414.981 411.875 411.611 413.775L408.76 412.313C405.881 410.84 402.852 408.826 400.083 407.095L413.634 401.775Z" fill="#9DCEE0"/>
</g>
<defs>
<clipPath id="clip0_1_3">
<rect width="1200" height="896" fill="white"/>
</clipPath>
</defs>
</svg>
